<svg id="レイヤー_1" data-name="レイヤー 1" xmlns="http://www.w3.org/2000/svg" viewBox="0 0 877.35 799.35"><path d="M694.69,892.89a5.54,5.54,0,0,0-3.87,1.55,5.62,5.62,0,0,0-.43,8.1,5.52,5.52,0,0,0,4.3,1.94,5.61,5.61,0,0,0,3.89-1.52,5.68,5.68,0,0,0,1.88-4.29,5.61,5.61,0,0,0-1.52-3.89A5.67,5.67,0,0,0,694.69,892.89Zm0,9a3.09,3.09,0,0,1-2.13-.81,3,3,0,0,1-1-2.37,3,3,0,0,1,.78-2.07,3.26,3.26,0,0,1,2.4-1.14,2.89,2.89,0,0,1,2.09.92,2.81,2.81,0,0,1,1.1,2.29,3.13,3.13,0,0,1-.86,2.12A2.83,2.83,0,0,1,694.69,901.85Z" transform="translate(-101.32 -140.77)"/><path d="M671.62,902.06a2,2,0,0,0-.55,1.45c0,4.53-1.65,8.36-5.33,12.11a88.37,88.37,0,0,1-8.1,7c-.69.55-1.37,1.09-2,1.64a1.32,1.32,0,0,0-.34,1.45,1.28,1.28,0,0,0,1.16.83,1.25,1.25,0,0,0,.71-.23l1.73-1.24a94.22,94.22,0,0,0,9.66-7.5c4.51-4.18,6.69-8.66,6.83-14.1a2,2,0,0,0-.54-1.47A2.42,2.42,0,0,0,671.62,902.06Z" transform="translate(-101.32 -140.77)"/><path d="M692.92,910a50.6,50.6,0,0,0-9.63-8.78,1.31,1.31,0,0,0-1.93.62,1.26,1.26,0,0,0,.35,1.39,45.61,45.61,0,0,1,9.07,9.8,34,34,0,0,1,3.13,5.93c.31.76.55,1.53.78,2.29s.41,1.32.67,2a2,2,0,0,0,1.94,1.37,2.39,2.39,0,0,0,1.92-1,2.13,2.13,0,0,0,.22-2A40.91,40.91,0,0,0,692.92,910Z" transform="translate(-101.32 -140.77)"/><path d="M721.5,906.43c.46.47.93.94,1.43,1.4a2.06,2.06,0,0,0,2.88-.21,2,2,0,0,0,.51-1.51,2,2,0,0,0-.69-1.36,35.54,35.54,0,0,0-9.89-5.71,1.24,1.24,0,0,0-1.17,2.18l1,.63a39.63,39.63,0,0,1,3.8,2.58A22.35,22.35,0,0,1,721.5,906.43Z" transform="translate(-101.32 -140.77)"/><path d="M748,900.82c-.44.68-.88,1.34-1.32,2-2.84,4.32-5.78,8.79-9.58,12.46a28.35,28.35,0,0,1-9.11,6.16,23.28,23.28,0,0,1-9,1.73,1.93,1.93,0,0,0-2,2,2.08,2.08,0,0,0,2.09,2.17h.12a28.81,28.81,0,0,0,19.27-8.36c5-5.15,8.64-11.43,11.63-16.94a1.14,1.14,0,0,0,0-1.18A1.31,1.31,0,0,0,748,900.82ZM719.1,927h0v0Z" transform="translate(-101.32 -140.77)"/><path d="M789.44,898.24h-25a1.31,1.31,0,0,0-1.05.45,1.44,1.44,0,0,0-.33,1,1.4,1.4,0,0,0,1.38,1.48h22.26s.13.09.13.16a19.25,19.25,0,0,1-1.82,7.34,30,30,0,0,1-6.51,8.58,61.19,61.19,0,0,1-16,10.73,1.24,1.24,0,0,0-.63,1.41,1.27,1.27,0,0,0,1.22,1,1.79,1.79,0,0,0,.54-.11c8.16-3.72,13.86-7.28,18.51-11.59,5.88-5.53,8.91-11.46,9.28-18.19a2.14,2.14,0,0,0-.59-1.61A2,2,0,0,0,789.44,898.24Z" transform="translate(-101.32 -140.77)"/><path d="M827.46,909.19h-7.09V902c0-2.37-3.68-2.33-3.68,0v7.18H802.75a1.27,1.27,0,0,0-1.29,1.3,1.24,1.24,0,0,0,1.29,1.29H812c-.29,5.61-4.77,11.05-13.64,16.57a1.09,1.09,0,0,0-.47,1.27,1.2,1.2,0,0,0,1.12.92,1.06,1.06,0,0,0,.63-.23c7.81-4.67,15.16-10.16,16.18-18.53h.84l0,13.21a13.08,13.08,0,0,0-1.11-.8l-.74-.5a1.31,1.31,0,0,0-2,.71,1.13,1.13,0,0,0,.5,1.26l1.34,1c1.34,1,1.94,1.42,2,2.2a1.84,1.84,0,0,0,3.68,0v-17h7.09a1.26,1.26,0,0,0,1.3-1.29A1.28,1.28,0,0,0,827.46,909.19Z" transform="translate(-101.32 -140.77)"/><path d="M877,907.2a1.71,1.71,0,0,0-1.51.92s-1,2-4.49,2H842.61a1.67,1.67,0,0,0,0,3.33H871c4.85,0,6.86-2.76,7.5-4l-.34-.25.4.13a1.55,1.55,0,0,0-.18-1.45A1.72,1.72,0,0,0,877,907.2Z" transform="translate(-101.32 -140.77)"/><path d="M928.36,918.43a1.36,1.36,0,0,0-1.22.8c-.11.22-1.2,2.17-4.82,2.17h-3.64V904a2,2,0,0,0-2.06-2.08h-17.3a1.43,1.43,0,0,0-1.45,1.45,1.4,1.4,0,0,0,1.45,1.43h15a.24.24,0,0,1,.23.24V921.4H889.07a1.42,1.42,0,0,0-1.45,1.45,1.38,1.38,0,0,0,1.45,1.42h33.25c4.95,0,6.94-2.84,7.44-3.73l-.35-.22h0l.39.14a1.38,1.38,0,0,0-.15-1.33A1.59,1.59,0,0,0,928.36,918.43Z" transform="translate(-101.32 -140.77)"/><path d="M978.57,909.34a1.61,1.61,0,0,0-.18-1.45,1.71,1.71,0,0,0-2.89.23s-1,2-4.47,2H942.62a1.67,1.67,0,0,0,0,3.33H971c4.83,0,6.83-2.76,7.48-4l-.34-.24h0Z" transform="translate(-101.32 -140.77)"/><path d="M155.76,771.84c-4.82-1.73-11.48-2.61-19.82-2.61H101.32v4h4.23c3.3,0,5.69.9,7.33,2.73.76.88,1.65,3.37,1.65,10.36V846c0,6.34-.67,8.73-1.23,9.61-1.55,2.34-4.08,3.48-7.75,3.48h-4.23v4h41.1v-4h-4.29c-3.26,0-5.7-.93-7.28-2.76-.78-.87-1.72-3.36-1.72-10.33v-26c2.61.54,5.11,1,7.47,1.24a57.45,57.45,0,0,0,7.31.5c9.24,0,16.51-2.46,21.62-7.3s7.69-11.23,7.69-19a22.91,22.91,0,0,0-5.07-14.85A27.79,27.79,0,0,0,155.76,771.84Zm.41,25.07c0,5.59-1.65,10.2-4.94,13.69a15.52,15.52,0,0,1-11.67,5.25,40.28,40.28,0,0,1-4.68-.34c-1.72-.21-3.65-.51-5.75-.89V777.41a38.27,38.27,0,0,1,8.17-1.15,19.61,19.61,0,0,1,9.86,2.46,16.48,16.48,0,0,1,6.64,7.38A25,25,0,0,1,156.17,796.91Z" transform="translate(-101.32 -140.77)"/><path d="M280.16,856.21c-2-1.75-4.32-5.7-6.86-11.75l-32.36-77.33h-3.39l-32.7,76.51c-2.76,6.54-5.3,10.93-7.53,13-.71.68-2.51,1.66-7.1,2.47l-.63.11v3.91h30.6v-4l-.7,0c-5.33-.39-7.43-1.26-8.27-1.92a3.93,3.93,0,0,1-1.72-3.12c0-1.67.76-4.27,2.25-7.75l6.08-14.14h34.78L258,845.05c1.77,4.19,2.66,7.28,2.66,9.18a4,4,0,0,1-1.65,3.22c-1.17.94-3.54,1.5-7,1.68l-.73,0v4h38v-4l-.7,0C284.94,858.91,282.12,857.93,280.16,856.21Zm-30.09-30.55H220.59L235.52,791Z" transform="translate(-101.32 -140.77)"/><path d="M374.08,769.23v4h4c3.37,0,5.87.87,7.41,2.62.78.86,1.7,3.31,1.7,10.11v51.19L332,769.51l-.22-.28H305.6v4h.76a21.13,21.13,0,0,1,5.76.57,22.43,22.43,0,0,1,5.88,2.69,40,40,0,0,1,5.79,5.87v64c0,6.22-.74,8.61-1.36,9.51-1.5,2.17-4,3.23-7.76,3.23h-4v4h33.68v-4h-4c-3.36,0-5.86-.88-7.41-2.61-.75-.86-1.65-3.33-1.65-10.13V791.61l59.58,72.78.23.27h3.56V786c0-6.22.75-8.61,1.36-9.51,1.49-2.13,4.08-3.22,7.71-3.22h4v-4Z" transform="translate(-101.32 -140.77)"/><path d="M720.12,774.91h.75a13,13,0,0,1,5.2.78,5.92,5.92,0,0,1,2.53,2.08,5.39,5.39,0,0,1,.86,3c0,1.93-1.34,5-4,9.12L708,817.39,689.35,788.6c-3.34-5.13-4-7.42-4-8.44a4.11,4.11,0,0,1,2.3-3.85,11.21,11.21,0,0,1,5.52-1.4h2.81v-4h-41v4h.76a8.43,8.43,0,0,1,3.63.61c3.26,1.54,5.42,2.86,6.41,3.92a83.33,83.33,0,0,1,6,8.41L697,826.37V848c0,6.22-.75,8.62-1.36,9.53-1.5,2.15-4,3.21-7.7,3.21h-4v4h40.76v-4h-3.76c-3.49,0-6-.88-7.61-2.6-.78-.87-1.71-3.34-1.71-10.14V825.08l22.16-34.92a59.82,59.82,0,0,1,6.8-9.42,19.24,19.24,0,0,1,6-4.32,13.28,13.28,0,0,1,4.86-1.51h2.53v-4H720.12Z" transform="translate(-101.32 -140.77)"/><path d="M817.13,768.78A45.14,45.14,0,0,0,785.47,781c-10.11,9.38-15.24,21.64-15.24,36.47,0,14.48,4.44,26.47,13.19,35.62a45.16,45.16,0,0,0,65.31-.35c9-9.36,13.52-21.31,13.52-35.48,0-13.78-4.52-25.42-13.41-34.62S829.28,768.78,817.13,768.78Zm-1.3,6.48c8.54,0,15.31,3,20.13,9,6.09,7.6,9.17,19.35,9.17,34.92,0,14.32-2.8,24.93-8.32,31.53a26.2,26.2,0,0,1-20.91,9.88,23.27,23.27,0,0,1-19-9c-6.3-8-9.51-19.5-9.51-34.34,0-14.48,3.09-25.59,9.16-33.06C801.34,778.26,807.84,775.26,815.83,775.26Z" transform="translate(-101.32 -140.77)"/><path d="M944.45,770.88v4h4.23c3.31,0,5.71.9,7.32,2.73.79.91,1.73,3.45,1.73,10.36v37.41c0,9.66-.86,16.59-2.55,20.58s-4.86,7.21-9.46,9.75a32.15,32.15,0,0,1-15.85,3.86,25.15,25.15,0,0,1-11.62-2.43,18.91,18.91,0,0,1-7.18-6.15c-1.65-2.48-2.82-6-3.44-10.51a87,87,0,0,1-1-12.24V788c0-5,.54-8.31,1.58-9.81,1.5-2.21,4-3.28,7.55-3.28h4.29v-4H878.61v4h4.23c3.25,0,5.64.81,7,2.4S892,782.53,892,788v36.1c0,11.18.75,18.93,2.24,23a29.08,29.08,0,0,0,11.38,14.47c5.33,3.57,13.21,5.37,23.4,5.37,9.39,0,16.93-1.89,22.39-5.61s9.25-8.29,11.12-13.52,2.8-12.5,2.8-21.83V788.55c0-6.17.71-8.52,1.32-9.42a8.61,8.61,0,0,1,7.75-4.22h4.23v-4Z" transform="translate(-101.32 -140.77)"/><path d="M637.57,820.56c.21-.75.18-1.54-.55-1.86s-1.73.46-2.24.74a38.66,38.66,0,0,0-5.08,3.65c-.93.75-1.82,1.46-2.45,1.88-1.38.91-3.08,1.21-4.49,2.07s-2.72,1.7-4.1,2.53c-2.51,1.54-5.31,3.54-8.22,4.21-4,.89-9.05,4.67-13.17,2.27-2.58-1.52.23-5.32,1.05-7,.74-1.54,1.2-3,2.48-4.15a72.24,72.24,0,0,1,8.76-7.35c1.16-.77,2.8-1.65,3.6-2.84a7.16,7.16,0,0,0,1-5.16c-.44-1.72-2-2.73-3.49-3.59l-.72-.44c-.23-2.57-.11-6.09.72-8a8.5,8.5,0,0,1,.91-1.41c1-1.31,2.14-2.93,1.49-5.29-.38-1.38-1.68-2.51-2.71-3.42-.26-.23-.5-.43-.72-.64l-.11-.12h-.19c-5,0-7.47,3.45-9.62,6.49l-1,1.33-2.09,2.09-1.8,1.8-1.36,1.83c-5.16,7-10,13.58-18.1,17.84a14.12,14.12,0,0,0-2.19,1.54,17.92,17.92,0,0,1-1.68,1.23,11.27,11.27,0,0,1-3.35,1.09c-.66.15-1.34.29-2.05.5-.17.06-.4.13-.64.23a9.79,9.79,0,0,1-2.48.62.79.79,0,0,1-.44-.1,7.17,7.17,0,0,1,1.65-3,10.63,10.63,0,0,0,1.36-2.1A65,65,0,0,0,570,805.48c.49-2.1-.71-4.47-1.32-5.64-1.9-3.64-6.13-5.73-11.58-5.73A23.71,23.71,0,0,0,548,796a53.35,53.35,0,0,0-9.34,5.47c-.59.4-1.16.78-1.73,1.18-5.3,3.48-10.45,6.81-14.85,11.45a55.48,55.48,0,0,1-7.39,5.93,32.24,32.24,0,0,0-4,3.74c-.84.87-1.91,1.29-2.8,2.06s-1.68,1.9-2.63,2.73c-1.76,1.57-4.06,2.51-6.06,3.74l-.87.55a17.08,17.08,0,0,1-5.55,2.66,1.07,1.07,0,0,0-.22-.15c0-1.29.12-2.64.22-4a26.46,26.46,0,0,0-.23-8.53,19.43,19.43,0,0,0-1.1-2.87c-.14-.31-.28-.6-.39-.88a7,7,0,0,1-.28-.8,4.45,4.45,0,0,0-.58-1.33c.28-1.24,3.51-3.53,4.93-4.53l.92-.67a15.36,15.36,0,0,0,2.47-2.56,15,15,0,0,1,2.29-2.39,32.87,32.87,0,0,0,6.63-6.81l3.17-3c3.16-4.25,6.39-8.45,9.56-12.7,2.29-3.05,5.23-5.77,7-9.15a24.11,24.11,0,0,1,2.68-3.38c.95-1.2,1.28-2.67,2.14-3.91s1.81-2.22,2.54-3.45.91-2.5,1.64-3.64,1.85-2.21,2.63-3.41,1.14-2.91,2-4.25a18.75,18.75,0,0,0,2.65-4.9,13.68,13.68,0,0,1,.55-1.68c.39-.9.79-1.81,1.21-2.74,2.85-6.44,6.08-13.72,5.23-22.76v-.17l-.12-.12a4.78,4.78,0,0,1-.43-.48,3.91,3.91,0,0,0-1.7-1.26,4,4,0,0,0-2.22-.4h-.13l-.11.08a1.45,1.45,0,0,1-.62.12,2.86,2.86,0,0,0-1,.19,15.76,15.76,0,0,0-2.56,1.62l-.16.15c-.5.54-1,1.09-1.41,1.58a32.9,32.9,0,0,0-6.82,6.82l-5.56,5.37c-2.08,2.76-4.17,5.62-6.59,9-.68.94-1.47,1.85-2.25,2.74a32.84,32.84,0,0,0-2.9,3.7c-1.67,2.64-3.21,5.47-4.71,8.21-1.31,2.38-2.67,4.86-4.09,7.19a19.25,19.25,0,0,0-1.4,3,17.43,17.43,0,0,1-1.35,2.86c-.58,1-1.22,1.95-1.86,2.94-.86,1.32-1.74,2.7-2.53,4.05a32.25,32.25,0,0,0-2,4.17,30,30,0,0,1-2,4.24,186.28,186.28,0,0,0-12.17,23,6.09,6.09,0,0,1-2.23-1.45,10.35,10.35,0,0,0-1.29-1,8,8,0,0,0-4.21-1.12,7.93,7.93,0,0,0-6.47,2.91c-2.57,3.71-3.77,9.79-1.11,14.23l.66,1.1c.72,1.22,1.47,2.46,2.27,3.67a4.14,4.14,0,0,0,.35.43,1.45,1.45,0,0,1,.52,1.56,2.22,2.22,0,0,1-.65.76,3.9,3.9,0,0,0-.57.58c-.65.9-1.22,1.89-1.77,2.84-.22.35-.43.7-.63,1-1.77,2.9-3.48,5.8-5.2,8.7-1.62,2.72-3.23,5.45-4.87,8.16a12.86,12.86,0,0,0-1,2.08c-1.57,4.17-4.88,7.44-6.29,11.68-1.27,3.82-3.77,7.12-5.68,10.68-3.29,6.11-6.11,12.45-8.8,18.84-.79,1.84-1.55,3.68-2.31,5.52-.44,1-1,2.13-1.49,3.17s-1,2.07-1.47,3.15l-.34,1.73a27.75,27.75,0,0,1-1.53,2.87,28.9,28.9,0,0,0-1.59,3,19.5,19.5,0,0,0-1.07,4,25.26,25.26,0,0,1-.77,3.21c-.27.81-.61,1.67-1,2.56s-.74,1.85-1,2.76c-.54,1.65-2,8.8-.52,10.81.52,1.32,2.05,2.06,4.33,2.06a12.64,12.64,0,0,0,5.27-1.15c4.55-2.41,7.47-6.62,10.3-10.7,1.84-2.65,3.88-5.09,5.87-7.62s4-5.54,6.2-8.13a23,23,0,0,0,3.69-4.78,7.41,7.41,0,0,1,1.38-2.37,6.08,6.08,0,0,0,1.93-2.61A3.15,3.15,0,0,1,463,902c.74-1.17,1.63-2.38,2.49-3.54s1.86-2.52,2.65-3.8a22.06,22.06,0,0,0,1.33-2.6,19.16,19.16,0,0,1,1.41-2.69A167.67,167.67,0,0,0,482.23,868a137.3,137.3,0,0,0,5.54-14.92c.66-2,1-4.09,1.56-6.12.29-1,.76-1.94,1.15-2.91s.34-2.15.86-2.88a1.11,1.11,0,0,1,1-.35l.6,0a5.63,5.63,0,0,0,1.85-.08,20.17,20.17,0,0,0,3.49-1.33c.39-.16.77-.34,1.17-.52a37.08,37.08,0,0,0,11.9-8.55l.28,0c0,.42-.06.83-.1,1.24a9.87,9.87,0,0,0,.12,3.5,15.27,15.27,0,0,0,10,9.85,11.61,11.61,0,0,0,4,0c1.26-.11,2.54-.06,3.8-.23a56.23,56.23,0,0,0,8-2.13,34.47,34.47,0,0,0,9.72-4.38,31.61,31.61,0,0,0,5.93-4.52c.4-.44.79-.86,1.13-1.25.17-.13.35-.24.52-.36a4.58,4.58,0,0,0,1.22-1c.13-.17.27-.38.42-.6a6.52,6.52,0,0,1,1.62-1.85,1.41,1.41,0,0,1,.55-.07,18.56,18.56,0,0,1,1.93.19,11.8,11.8,0,0,0,4,.1c2.29-.62,4.6-1.31,6.89-2,3.52-1,6.41-3.64,9.58-5.38a46.07,46.07,0,0,0,4.37-2.6c3.1-2.18,5.9-5.49,8.16-8.15a6.05,6.05,0,0,1,1.26-1,9.52,9.52,0,0,0,1.27-1,30.21,30.21,0,0,0,2.07-2.42c1.42-1.74,3-3.72,4.49-4.49.08,2.68.82,7.32,2,9.28-.14,1.87-1.4,2.75-2.72,3.68a13.26,13.26,0,0,0-1.52,1.19l-.93.88c-3.73,3.52-7.58,7.15-9.63,12.48-.94,2.47-1.35,6.33,0,9,3,5.75,11.18,6.21,16.58,4.29,3.16-1.11,6.09-3.16,9.07-4.67,1.91-1,3.38-2.64,5.31-3.52,2.38-1.09,4.37-3.16,6.59-4.56a36.88,36.88,0,0,0,9.49-8A4.81,4.81,0,0,0,637.57,820.56Zm-93.9-10c.72,5.56,3.27,11.32,6.4,14.42a3.9,3.9,0,0,1-1.51,2.39,9,9,0,0,0-.94,1c-3.09,4.08-8.9,5.78-14.6,7.18a20.09,20.09,0,0,1-4.78.63c-3.15,0-5.37-1-6.63-3-2.92-4.65-.58-7.72,1.66-10.67.24-.31.48-.62.7-.93a50,50,0,0,1,10.9-10.16,15.55,15.55,0,0,0,1.55-1.4,11.71,11.71,0,0,1,1.73-1.53,19.66,19.66,0,0,1,2.32-1.25,15.12,15.12,0,0,0,3.28-2h.11c0,.77-.08,1.5-.13,2.21A15.14,15.14,0,0,0,543.67,810.55Zm14.07,7.84c-.68,1-1.33,1.87-1.93,2.79-1.17-.23-1.75-1.32-2.35-2.46-.17-.33-.34-.65-.52-1-2.8-4.54-2.76-11.54.08-16.38a4.68,4.68,0,0,1,.49-.06,7.39,7.39,0,0,0,2.1-.45H556c3.78,0,5.35.26,7.45,1.81C564.16,809.29,560.89,813.91,557.74,818.39Zm-62.12-13.84a5.23,5.23,0,0,1,.85-2.51,10.06,10.06,0,0,0,.62-1.28,12.63,12.63,0,0,0,.47-1.44,7.87,7.87,0,0,1,.78-2c.23-.37.49-.75.77-1.14a13.65,13.65,0,0,0,1.46-2.39,17.13,17.13,0,0,0,.57-1.65A8.42,8.42,0,0,1,502,790a13.89,13.89,0,0,1,1-1.27,9.69,9.69,0,0,0,1.45-2.08c.35-.78.67-1.54,1-2.27a38.66,38.66,0,0,1,2.45-5c.39-.62.82-1.26,1.26-1.93a43.56,43.56,0,0,0,2.43-4,262.27,262.27,0,0,1,24-38.6,24.72,24.72,0,0,1,3.14-3.2c.65-.61,1.28-1.19,1.84-1.75h.38a1.59,1.59,0,0,1,.8.12l.41.14c1.16,7.07-3.41,15-6.44,20.32-.54.94-1,1.81-1.44,2.58-2.16,4-4.43,7.86-6.94,11.69a11.85,11.85,0,0,0-1,2,10.13,10.13,0,0,1-1,2c-3.41,4.75-7.1,9.43-10.65,14-2.86,3.63-5.8,7.37-8.59,11.12a15.51,15.51,0,0,1-2,2.08,18.1,18.1,0,0,0-2,2.15c-.2.27-.39.55-.57.82a8.74,8.74,0,0,1-1.71,2l-.32.24a17.43,17.43,0,0,0-3.68,3.33Zm-35,57.19a3,3,0,0,1,.33-1c.13-.21.31-.42.48-.64a6.08,6.08,0,0,0,.84-1.25,2.6,2.6,0,0,0,.18-.83,1.46,1.46,0,0,1,.15-.59c.46-.77,1.05-1.56,1.62-2.34s1.18-1.6,1.67-2.42a41.5,41.5,0,0,0,2.1-4,40,40,0,0,1,2.12-4c1-1.66,2.22-3.37,3.36-5s2.26-3.23,3.29-4.86h.47a26.2,26.2,0,0,0,5.1,3.78,4.68,4.68,0,0,0,1.35.5,3.58,3.58,0,0,1,1.25.48c.64.9-.18,2.78-.73,4-.17.41-.33.77-.43,1.06a18.07,18.07,0,0,0-.63,2.76,15.13,15.13,0,0,1-.64,2.72l-2,5.26c-.53,1.4-1.05,2.79-1.53,4.09-7.34,19.82-17.83,35.92-26.15,47.71a15.77,15.77,0,0,1-1.91,2.11,16.84,16.84,0,0,0-1.93,2.11,42.63,42.63,0,0,1-3.37,3.94,43.18,43.18,0,0,0-3.22,3.75c-.38.5-.76,1-1.13,1.58a27.13,27.13,0,0,1-3,3.85l-.09.1c-.72.7-3.59,3.34-4.56,1.83-.7-1.09.44-3.39.82-4.44.24-.64.52-1.27.75-1.91,1.52-4.26,2.85-8.57,4.48-12.79a109.8,109.8,0,0,0,3.8-10.36,61.57,61.57,0,0,1,3.69-8.76q2.05-4.59,4.27-9.12c.84-1.71,1.7-3.43,2.59-5.13.46-.9.85-1.87,1.22-2.78a21.22,21.22,0,0,1,1.7-3.61,23.31,23.31,0,0,1,1.41-1.92,17.14,17.14,0,0,0,1.9-2.67A5.14,5.14,0,0,0,460.63,861.74ZM478,820.88c-.34.47-.65.9-.91,1.29a7.63,7.63,0,0,0-.42.73c-.31.59-.54,1-1.12,1.25-.56-.26-1.4-1.51-2-3.52-.78-2.55-.74-4.91.09-6l.06-.13c.23-.69.55-.76,1.2-.92a4.48,4.48,0,0,0,1.23-.42h1.33a4.48,4.48,0,0,0,1.5,1,7,7,0,0,1,.91.5l.81,1h0C480.52,817.4,479.11,819.33,478,820.88Zm8.45,12.8-.06.11c-.09.23-.11.25-.2.33l-.11.1c-2.25-.18-3.8-1.67-5.16-3l-.6-.57c.25-2.44,3.42-5.78,5.06-7.45a7.68,7.68,0,0,1,1.18,3C487.17,828.87,487.34,832.42,486.41,833.68Z" transform="translate(-101.32 -140.77)"/><path d="M519.41,154.38h-1a40.21,40.21,0,0,1-4.38,4.8,3.77,3.77,0,0,0,.21,1c.36.13.2,0,.42.21,1.79-.21,3.76-4,5-5.21A2.65,2.65,0,0,0,519.41,154.38Z" transform="translate(-101.32 -140.77)"/><path d="M520.24,171.05c-.56-.11-.78-.29-1.24,0h-.42c0,4.14,1.76,6.09,3.74,8.75.57.76,1.65,1.2,2.1,2.09h.2c-.35.84-1.18,1.11-1.67,1.87a2,2,0,0,1,.41.63c.37.13.21,0,.43.21,2.11-.26,2.67-1.69,4-2.71a20.82,20.82,0,0,1,5.63-3.12c5.15-1.65,10.84-2.4,16.25-3.55l2.5.21c.94-.26,2.1-1,3.12-1.26,2.42-.61,4.57.29,6.26-.82l.62-.21c-.08-.43,0-.4-.2-.62v-.22h-4.18c.14-.35,0-.2.21-.41-.27-1.71-1.33-1.18-2.29-2.08a12.46,12.46,0,0,1-.83-2.09c-1.34.18-.82.88-1.66,1.46v.21c-.85-.44-.81-1.38-1.67-1.88-.08-1.08-.63-3.22,0-4.16a2.44,2.44,0,0,0-.42-1.46,4.1,4.1,0,0,0-1.46.21c-.08,4.87-.36,9,2.92,11l-.21.21c-1.44,1-1.51-.13-2.92.2a28.67,28.67,0,0,1-7.29,1.25c0-3.57,0-3.6-1.45-5.82-.15-.43-.28-.84-.43-1.26-.29-.26-.81.11-1-.21-.51-.69-.42-1.55-.83-2.3-.67-1.18-1.9-2.06-2.71-3.11a3.92,3.92,0,0,0-1.25.2c.4,1.89,2.51,3.3,3.33,5,.21.89.42,1.8.63,2.7.61.77,1.19-.17,1.67,1.46.21.61-.3,1.56.41,2.5-.06,2.77-2.6,1.68-4.79,2.3-3.42.95-5.85,2.86-9,3.95a5.28,5.28,0,0,0-1.46-1.87c-.93.07-.88,0-1,.83l-.2-.2a7.79,7.79,0,0,1-2.3-4.81l-1.46-.2c-.14-.62-.4-1.71,0-2.29Z" transform="translate(-101.32 -140.77)"/><path d="M517.74,181.05c-.22.16-.19.14-.63.21-.06.07-.13.13-.2.22.49,1.53,1.7,2.13,2.5,3.32h1.25A7.76,7.76,0,0,0,517.74,181.05Z" transform="translate(-101.32 -140.77)"/><path d="M549,199.59c1.56-.3,3.17.94,4,.84a2.83,2.83,0,0,0,2.5-2.09c.16-.12.06,0,0-.21-.69-1.64-3.34-2-5.83-1.86-.35.22-1,0-1.46.2s-1,1-1.45,1.25l-1.47.21c-.73.34-1.56,1.22-2.29,1.66V200a2.14,2.14,0,0,1,.41.63C545.52,200.7,547,200,549,199.59Z" transform="translate(-101.32 -140.77)"/><path d="M550.8,204.55c-1.32.78-2.22,2-4,2.36-.09.2-.17.39-.26.61a1.67,1.67,0,0,1,.55.88,10.49,10.49,0,0,0,4.68-.84c.43-.18.57-.9.94-1.17l3.21-.76a2.32,2.32,0,0,0-.1-1.26,4.81,4.81,0,0,0-2.87-.67C552.33,204.13,551.47,204.15,550.8,204.55Z" transform="translate(-101.32 -140.77)"/><path d="M559.83,215.64a4.12,4.12,0,0,0-.21-1.25h-1a13.64,13.64,0,0,0-1.25,2.08,11.82,11.82,0,0,1,1,.83C559.61,217.06,559.26,216.48,559.83,215.64Z" transform="translate(-101.32 -140.77)"/><path d="M537.74,231.68c.45-1.06-.22-5.19-.21-7.29h-.83C536.23,226.21,535.32,230.5,537.74,231.68Z" transform="translate(-101.32 -140.77)"/><path d="M557.53,225.85v.41c1.86,1.57,1.87-.35,3.34.42,1.43,0,1.66-.3,1.88-1.46a3.71,3.71,0,0,1-.63-.83c-1.11,0-1.22,0-2.09,0-.44.36-1.14.29-1.66.62Z" transform="translate(-101.32 -140.77)"/><path d="M513,248.35l.21-.21a2.18,2.18,0,0,0-.42-1h-1.66A11.53,11.53,0,0,1,509,250v.42C511.07,250,510.34,248.38,513,248.35Z" transform="translate(-101.32 -140.77)"/><path d="M819.84,329.6c-.38-1-.06-1.63-.63-2.29.51-2.51,2.64-3.94,2.92-6.88.1-1.12-1-3.4-1.25-4.37-.47-1.54-.46-2.59-1.26-3.76-1.94-2.84-8.48-4.66-13.53-4.58-.1-.43-.06-.4-.22-.62-.76-1.57-3.32-2-4.79-2.92-1.28-.81-2.86-2.18-4.37-2.71-2.52-.87-9.08-.13-11.46.42-1.75.4-5.47.71-7.92,1.25h-3.54c-1.25.32-4.38.6-6.25,1h-1.87c-2.64.71-6.1.83-9,1.47h-3.13c-5.67,2-13.4,1.82-19.38,3.32h-2.91c-.77.18-2,.65-2.71.84H726.5c-3.57.92-7.35,2.35-10.63,3.54-.88.31-1.52,0-2.29.42-1.1.55-2.2,1.87-3.33,2.29s-1.9.1-2.71.62-.31.67-.83,1.25c-.22.24-.83.18-1.05.42s-.27,1.09-.62,1.45l-1.46.84c-.62.85-.52,2-1.05,2.92s-1.73,1.3-2.28,2.08v.63c-1.21,1.3-4.91,1.56-6.88,2.29a127.36,127.36,0,0,1-14.79,4.16l-7.08-.2c-3,.8-8.28,1.5-10.63,3.12-.67.46-1,1.9-1.67,2.29l-2.91.21c-1.48.44-3.35,1.05-5,1.46-3.06.76-6.25,1.1-9,1.87l-3.54.42c-.77.25-2.3,1.63-3.75,1-.63-.25-1.58-1.19-2.3-1.46-2.86-1-6.06-1.22-8.74-2.5-3-1.42-6.49-3.19-10.21-3.75-.13-2.26-1.1-8.68,0-10.42a7.59,7.59,0,0,0-1.67-3.32c-.36-.31-1.16-.08-1.46-.42l-.21-1.26c-.77-1.79-1.55-4.72-2.49-6.45-.78-1.41-2.32-2.65-3.13-4s-1.39-2.5-2.29-3.74c-.42-.6-1.19-1.13-1.47-1.89-1.69-4.79.16-10.62,1-15.83.32-1.86-.62-5.42-.83-7.92.3-.56-.31-5.81-.63-7.08-.14-1.46-.28-2.91-.41-4.38-1.11-3.78-2.91-8-5.84-10-1.3-.88-3.35-1.1-4.79-1.87-.93-.51-1.84-1.52-2.71-2.09s-1.9-.53-2.7-1a9.13,9.13,0,0,0-2.3-1.45c-.91-.19-1.95.77-3.13.41-.63-.19-1.78-.83-2.5-1-3.62-1-8.09.07-11.45-.62-.87-.18-1.91.15-2.5-.22-4.12,0-3.37-1.71-5.62-2.7-1.17-.51-2.61.18-3.54-.42a15.27,15.27,0,0,1-1.67-5c1.29,0,2.59.87,3.74.42a17.85,17.85,0,0,0,3.13-2.29c.73-.52,1.76-.52,2.5-1,.28-.21.2-.56.41-.84,1.51-1.91,3.59-3.36,4.59-5.83v-1.25c1-3.07,1.58-7,2.29-10,.49-2-.79-4.19-.41-5.62.13-.52.92-1,1-1.67.17-1.07-1.33-3.44-1-4.79,0-.17.57-.68.62-.83.64-2,.61-4.6,1-6.47.15-2.57.28-5.14.43-7.7.19-.53,1.06-1,1.25-1.46.3-.8-.59-3.48-.84-4.58.08-2,.14-4,.22-6.05a40.41,40.41,0,0,1-.22-6.66,5.61,5.61,0,0,0,.22-2.3c-.25-.91-.81-2.25-1.06-3.12-.44-1.7.36-4.08.64-5.42s-.29-6-.64-7.92c.08-.83.15-1.67.22-2.49-.29-.85-1.19-1.21-1.67-1.88a10.43,10.43,0,0,1-3.75-.62c-1.62-.95-1.86-3.86-3.33-5s-2.78-1.22-4.38-2.08c-2.5-1.37-5.21-5.3-10.2-4-.66.17-1.66.84-2.29,1h-1.26c-.5.21-1.07,1.05-1.66,1.24-2.25.73-5.47.25-6.25,2.29-3.11-.39-6.35-1.28-9.38-1.87-1.1-.21-5.94,1-6.87,1.46l-1,1c-1.5,1-3.14,1.45-4.59,2.5-3.3,2.38-4.67,7.18-5.21,12.3l-3.75.83a7.53,7.53,0,0,0-2.5,2.49c-.63.85-2,1.32-2.71,2.09-1.39,1.47-2.1,4.51-2.71,6.67-.67,2.41-.3,6.44-1.45,8.34,0,1.93,0,3.15.83,4.16,1.89,2.26,5.11,3.43,6.88,5.83.63.85.84,1.82,1.46,2.71l2.08,1.87c.07.27.13.56.2.84.67,1,2,1.56,2.71,2.5,1.13,1.49,2.47,3.51,4.38,4.16.14,1.6.28,3.2.41,4.8a42,42,0,0,0,1.88,4.79l1,1c.2.47-.25.84-.2,1,.31,1.58.65,2.61,1,4.17s-.17,2.08,0,2.92c.63,3.19,1.52,7.72.83,10.83-.47,2.08.3,6.45-.83,8.12-.7,1-1.8,2-2.51,3.12-2.82,0-6.28-1.72-9.16-.82a21.72,21.72,0,0,0-4.37,2.49c-.16.8-.37,3.52.2,4.38-.79,2.48-2.45,2.13-4.37,3.33l-.42.83c-.28.12-1.09-.32-1.25-.41l-.62.63h-4c-2.64.46-6.56-1.19-9-1.67-1.29-.27-3.4.5-4.58.62-.56.07-1.67-.52-2.51-.21-.38.16-1.27.9-1.66,1h-1.87a10.76,10.76,0,0,0-2.71,1.26c-1.61,1.18-2,3.52-3.13,5.21s-3.23,2.6-4.38,4.16c-.13.42-.27.84-.41,1.25-.82,1.24-2.26,2.18-3.13,3.33a73,73,0,0,1-6.45,7.92c-1.1,1.1-2.62,1.88-3.55,3.13a22,22,0,0,1-3.12,3.54c-.33.28-.92.13-1.26.41s-.2.77-.41,1c-.83.71-1.67,1.39-2.5,2.09a42,42,0,0,1-3.33,4c-.31.31-1,.31-1.25.63-1.32,1.38-2.37,3.08-3.54,4.57-.82,1.05-2.43,1.66-3.33,2.51-.56.51-.82,1.68-1.47,2.08-3.51,2.17-8.69,1.32-11,4.79-.76,1.12-.72,2.36-1.25,3.75-.61,1.63-1.57,3.61-2.08,5.42l-.42,5c-.06.23-.58.86-.63,1-.37,1.52,1.45,1.47,1.05,3.12-.32,1.33-.91,3.37-1.26,4.8a4.18,4.18,0,0,0,.42,2.29,22.6,22.6,0,0,1-.21,3.75,15.93,15.93,0,0,0-.21,6.25,8.5,8.5,0,0,1-.41,2.71c-.51,2.26,0,4.73-.41,6.67-.66,2.9.35,6.76.2,9.37a88.79,88.79,0,0,0,1.25,17.08c.45,2.18.17,7.51,1,9v3.12c-7.74,1.69-16.07,3.2-23.33,5.42-4.39,1.34-9.06,2.35-10.21,6.87-.69,2.73.95,5.93,1.88,7.29,4.61,6.77,17.38,4.63,25.83,2.5,2.13-.53,6.86-.37,8.34-1.46,2.09.77,3.67,4.07,6.25,4.79l4.58-.21c1.53.36,7.74,1.3,9.59.63,1.39-.5,2.52-2.23,3.74-2.92,1.67-.92,3.72-.81,5.22-1.87,1.1-.79,1.36-2.55,2.28-3.54,1.43-1,4.93-.7,6.46-1,5-1.14,11.47-2.16,16.25-3.75a37.8,37.8,0,0,1,6.67-.84c1.27.33,1.1,7.87,1.67,10,.67,2.51.86,4.88,1.45,7.51l-.42,3.95a12.87,12.87,0,0,1,.42,3.55c-.18,1-.78,3.06-.83,3.53-.1,1.08.38,3.22,0,4.8s-1.1,7.11-.83,9a15.76,15.76,0,0,1-.42,3.54c-.57,2.71.09,7.14-.62,10.2v4.38c0,3.47,0,7.17-.62,9.79v5c0,3.3.2,5.64-.43,8.33-.34,1.48.09,3.55-.2,4.79-.52,2.21.38,5.2.2,7.08a45.45,45.45,0,0,0,1.47,15.63v2.71c.39,1.67.26,4.3.62,5.83a8.88,8.88,0,0,1-.21,2.92,7.06,7.06,0,0,0,.63,2.7v4.17c1.2,5.26.71,12.09,1.87,17.09a5.76,5.76,0,0,1-.21,1.87,29.68,29.68,0,0,0,.63,4.59l-.42,5.62c.6,3,.27,7.49.83,10.21.37,1.78-.18,3.18,0,4.37a49.34,49.34,0,0,1,.21,11.47c-.63,3.41.16,8.7-.21,10.61s1,8.18,0,9.18c-.1,1.77-.15,2.77,1.25,3.12-.63,5.36-.67,13.29.21,17.7.57,2.88-.71,5.41.21,7.92.7,2,3.5,2.72,5.42,3.55,1.35.58,2.56,2.11,3.75,2.91.64.44,1.42.41,2.08.84,7.68,5,14.64,10.39,24,13.74,3.53,1.28,10.46.53,12.91-1,3.24-2.07,3.09-8.35,1.67-12.08s-4-7-6-10.21c-2.86-4.52-5.39-9.13-8.75-13.12a43.32,43.32,0,0,1-2.5-5c-.39-.89-.28-1.82-.84-2.49.22-1.81,1.59-1.69,2.09-3.13.58-1-.4-4.88-.42-6.67-.06-3.12-.14-6.24-.2-9.37a28.15,28.15,0,0,1-.63-7.29c.24-1.65-.82-3.05-.42-5,.35-1.7.1-7.07-.2-10.19-.24-2.36.43-5,.41-8.14l-.21-6.87c.94-4,.24-7.92,1.25-12.09.08-1.73.14-3.46.21-5.21.59-2.42.77-5.71,1.25-8.12.11-.57-.29-2.58,0-3.74,1.22-4.93,1.75-12.3,2.29-18.14a12.59,12.59,0,0,1,2.3.63c2.79.7,5.13-.21,7.91.42,4.11.93,9,1.11,13.13,2.08,2.65.62,6.43-.35,8.33,1.05,1.26.91,2,5.87,2.29,7.29l-.21,1.46c1.77,5,1.36,11.23,2.72,16.87.06,1.45.13,2.91.19,4.37.81,3.18.91,7.46,1.68,10.84v3.74c.27,1.1.49,3.24.63,4V564c0,.14.41,1.52.41,1.65a45.27,45.27,0,0,0,.83,10.21v6.88c.13.57-.39,3,0,4.58.29,1.18,0,4,.21,4.8.29,1.14.92,2.94,1,3.95.08.6-.49,1.09-.62,1.47.13.46.49,1.51.62,2.07.08,2.79.13,5.56.22,8.34a13.51,13.51,0,0,0-.42,2.7,68.32,68.32,0,0,0,1.25,7.3c.38,1.43.17,2.45.83,3.54.55.93,1.91,2.89,2.91,3.34,1.55.68,3.22.35,4.59,1,1.92,1,3.7,2,5.41,2.71l1.88.21c1.25.45,3,1.08,4.37,1.46l3.13.21c1.45.56,3.68,1.23,5.2,1.67,2.36.66,5.32-.32,7.93.21,4.22.84,19.92-1.12,23.33-3.76.65-.53.46-1,.83-1.87,2-4.57-.58-6.13-2.7-9-3.07-4.08-8-6.39-12.92-8.54l-2.29-.42c-3.4-1.62-7.07-3.88-11-4.79-.07-.4.07-2.1,0-2.29-.29-.82-1.38-2.05-1.67-3.12s.47-1.32.64-1.88V591.9c-.4-1.71.39-4.23,0-6.46a55.08,55.08,0,0,1-.42-8.75c.11-2.91.87-6.81.2-10-.47-2.32.25-7-.2-9-.77-3.37-.36-8.8-.42-12.29-.05-2,.4-4.8.2-6.45a88.84,88.84,0,0,1,0-16.87c.39-3.93-.79-8.61-.61-12.09,1.11,0,3.22.26,4-.21,1-.07,1.21-.24,1.45-1,1-1.58,0-4.85-.2-6.67.34-.61-.72-6.17-.83-8.12a78,78,0,0,0-2.51-14.59v-2.91c-.36-1.31-.85-3.49-1.25-5-.07-1.11-.13-2.22-.2-3.34a149.27,149.27,0,0,1-3.34-20c-.47-4.38-.62-9.76-1.67-14.16q-.2-6.25-.41-12.5c-.71-3-.81-7.17-1.25-10.63l.21-1.25c-.63-3.05-.72-6.83-1-10.21-.05-.43.39-1.52.2-2.29a23.06,23.06,0,0,1,.21-7.92c.07-2.77.15-5.56.21-8.33l.63-.21c.72-1.3.09-3.05.62-4.59.13-.36.47-.53.62-1a27.42,27.42,0,0,0,7.51-1.67l1.87-.21c1.06-.44,4.35-1.79,5.21-1.46,0,0,5.11-1.64,7.29-2.29l3.12-.41a6,6,0,0,1,3.55-.63c7.53,1.7,20.81.65,28.12-1.67,2.56-.81,8.25-1.45,9.79-2.91,3,.08,3.64,2.59,6.47,2.91,1.86.22,3.9-.89,5.42-1.25h5.83c1.72-.48,3-1.95,4.58-2.49,1.18-.41,2.23,0,3.54-.42a20.3,20.3,0,0,0,5.62-4.18c.76-1.33,0-3.22.43-5a18.19,18.19,0,0,1,1.66-3.75c3.76-.88,7-1.87,11-1.88,2.66,0,5.32-.49,6.87.21,3,1.36,5.61,3.52,8.13,5.42l2.5,2.5c1.91,1.15,4.5,1.5,6.88,2.09,1.11.26,2.77-.29,3.54-.22,5.48.53,14.34-1.5,20-3.12l4-.42c2.28-1,6.21-1.29,8.54-1.87,2-.5,4.1,0,5.63-.42,9.48-2.58,18.51-3.14,27.49-5.21,10.36-2.38,23.72-.14,27.71-10.2.55-1.38,2-3.57,1-5.83C820.53,330.31,820,329.94,819.84,329.6ZM809,310.22c3,0,8.39,2.08,9.38,4.59a3.65,3.65,0,0,1,.4,1.87c-.54.08-1.1.14-1.65.21a2.33,2.33,0,0,0-.42-1.05,2.46,2.46,0,0,0-1.46.42c.57,1.47,1.62,4.56,1.25,5.42v.83l-.21-.2c-.71-.36-1.35-2-1.67-2.71a3.12,3.12,0,0,0-2.49,0c.31.82.85.65,1.24,1.25.24.35.19.94.42,1.24,0,1.44-.27,1.37-.83,2.09-1.34-.14-1.78-1.8-2.29-2.7-.36-.14-.2,0-.42-.21a5.15,5.15,0,0,0-1.67.21A5.41,5.41,0,0,0,810,324c-.24.68-.44.75-1,1v.41a4.75,4.75,0,0,0,1.25,1,3.22,3.22,0,0,1-.62,1.87c-.17.15-.47.28-.63.42h-1.25c.55-3,.7-4.78-.63-7.49-.64-.19-1.06-.59-1.66-.21l-.63.21c.36.91,2.1,2.41,1.26,3.75v1.25c-.37.13-.21,0-.42.2h-1c-.35-1.74-.44-3.68-1-5-.86,0-1.09,0-1.47.41-.41.61.87,2.9.21,4v.42c-.59-.09-.67,0-1-.21a2.22,2.22,0,0,1-1.25-.21,4.16,4.16,0,0,1-.63-2.29l-.2-.21a4.34,4.34,0,0,0-1.46.21,19.52,19.52,0,0,0,.63,4.37,2.93,2.93,0,0,1-1.26.83c-.3.14-.09.26-.41,0,0-.06-.78-3.7-.84-4.78l-.2-.22a2.52,2.52,0,0,0-1.47.42c.11,2,.28,3.87.22,6.05a2.3,2.3,0,0,0-1.25.2h-.43c.89-1.69.06-3.93-.2-5.63l-.83-.41a4.1,4.1,0,0,1-.84.63c0,1-.08,3.59.42,4.37.27.69.41.73,1.25.84-.69.48-2.17.45-3.33.42,0-1.38.16-3.48-.42-4.38l-.21-.63a3.67,3.67,0,0,0-1.25.21c0,1.26-.49,3.49.21,4.58a3.87,3.87,0,0,1-.41.84h-1.26c0-1.93.24-3.22-.41-4.17a2.33,2.33,0,0,0-.42-1.46c-.48.05-.59,0-.84.21h-.41c.08,1.8.14,3.61.21,5.42a3.37,3.37,0,0,0-1.88.62h-.62c.27-1.61-.41-2.82-.42-5-1.18.12-.91.38-1.45,1-.15.94-.23,2.93.83,3.75-.08.07-.14.14-.21.21a2.28,2.28,0,0,1-1,.42l-.42-.42c-.07-1.46-.13-2.92-.21-4.38a2.71,2.71,0,0,1-.83-.2c-.28.33-.13.24-.63.42a27.46,27.46,0,0,0-.2,4.16l-.84.42v.21h-.21c-.2-1.15-.08-3-.42-3.55a2.67,2.67,0,0,0-.41-1.66c-1,0-1.2,0-1.46.83a1.46,1.46,0,0,0,.21,1.46l-.41.41c-.49-.57-.43-1-.42-2.08-.43-.08-.41-.05-.63-.2-.91.12-.71.24-1.24.61-.14.37-.05.22-.22.42a6,6,0,0,0-.83-1.87l-1,.21-.21.21c-.28,1.62.21,3.62.21,5.83l-2.29.21c0-1.33.16-3-.42-3.75-.18-.67.11-.32-.41-.63-.22-.16,0-.07-.43-.21a3.49,3.49,0,0,1-.83.63c.14.83.71,1.75.22,2.5-.33.65-1,.78-1.47,1.25h-.83a2.16,2.16,0,0,0-.21-1.67,3.16,3.16,0,0,0-.42-1.87c-.48,0-.58,0-.83.21h-.42c0,.79-.24,1.23,0,1.66v1.47h-.2a8.15,8.15,0,0,1-1-2.93c-.36-.13-.21,0-.42-.2-.43.08-.4.05-.63.2-.64.8-.3,3.42,0,4v.21c-.35.14-.2,0-.41.21h-1.88s-.16-4-.2-5.42c-.37-.13-.21,0-.43-.21a4,4,0,0,0-1.24.21,24.26,24.26,0,0,0,0,3.34A9.78,9.78,0,0,1,754,335l-2.5.2c.07-1.52.14-3.06.21-4.57h-1.46c-.36,1.68-.62,3-.84,4.57h-.62c-.14-1.4-.07-3.92-.83-4.79-.37-.24-.4-.07-.84-.2l-.41.42c-.11.94-.06,1.77-.21,2.7h-.42c0-1-.15-1-.2-2.29a2.43,2.43,0,0,0-1.47.41c.1,2.48.37,5-1.66,5.43-.21-.18,0-.08-.42-.22a35.23,35.23,0,0,0-.21-4.16,1.44,1.44,0,0,0-.83.2h-.42c-.22,1.24,0,2.78-.61,3.76v.42l-1.88.41c-.45-1.27-.35-3.24-1-4.37v-.22a2.4,2.4,0,0,0-1.46,2.3,3.17,3.17,0,0,1-.41-1.88c-.08-.06-.14-.14-.21-.2a1.84,1.84,0,0,0-1,.2h-.41v3.54a2.65,2.65,0,0,1-1.25-.83c-.73-1-.37-3-.21-4l-.2-.21c-2.35.08-2.47,1.05-3.55,2.29v.21h-.41a4.22,4.22,0,0,1,0-2.08c-.19-.67.1-.33-.42-.63-.22-.17-.06-.07-.42-.2-.31.47-.86.86-1,1.45s0,1.26-.21,1.67l-.2.2a11.72,11.72,0,0,1-.42-3.94c-1.57.11-1.78,1.41-1.88,2.9-.9-1.1-.68-2.3-.62-4.37-1.86,0-1.55.9-2.09,2.09-.65-.41-.23-1.76-.83-2.71-.31-.52-.09-.34-.83-.42a3.18,3.18,0,0,0,.2-1,5.55,5.55,0,0,1-2.5-.21h-.41c.12-.45.58-.74.63-1,.09-.54-.64-.89.19-2.09a12.7,12.7,0,0,1,3.55-2.08l1.47-.2c.06-.36.13-.7.2-1.05a6.91,6.91,0,0,1,2.71-1c1.5-.32,4.29.28,5.83-.62a3.22,3.22,0,0,1,1.46.41v.21c-1.68,1.26-2.56,4.32-3.54,6.25a12.57,12.57,0,0,0-.83,2.09c.15.77.3.73.62,1.24,2.06-.37,3.76-2.08,5.41-2.91,1.92-1,4.93-.19,6.67-1.26,2.82-1.71,5.58-4.57,7.92-6.87.71-.7,1.28-1.93,2.08-2.5,1.47-1,7.58-1.66,9.17-.62a2,2,0,0,1,.2.21H760c-.57,1.55-2.23,2.32-3.12,3.53s-3.62,5-4,6.25c-.29.63.27,1.13.63,1.67,2-.21,2.54-1.91,4-2.71,1.14-.62,2.3-.69,3.54-1.25l.63-.62c2.47-1.09,5.62.67,8.33,0,3.9-1,8.41-5.94,10.42-9,1,0,3,.05,3.74-.42a3.08,3.08,0,0,1,.84.21c-.51.69.2.08-.21.83-.63,1.17-3,2.73-3.75,4.18s-.9,2.41-1.66,3.75A10,10,0,0,0,778,324c.17.2.09,0,.22.41h1.88c.55-.24.63-1.06,1-1.46a40.76,40.76,0,0,1,6.87-3.75c3.12-1.1,6.81-.59,10.21-1.45a16.74,16.74,0,0,0,4-1.26c.65-.41,1.1-1.37,1.67-1.87C805.49,313.11,807.89,312.28,809,310.22Zm8.33,14.58v.63h-1.45c.08-.43,0-.4.2-.63C816.25,324.91,816.68,324.83,817.33,324.8Zm-70.62,10.84v.21c-.36.13-.2,0-.42.2-.16-.22-.13-.19-.21-.62Zm-13.54-13.75,2.7-2.71c1.13-.68,2.08-.35,3.54-.83.54-.18,1.36-.87,1.88-1h1.46a13.56,13.56,0,0,0,3.54-1.67h1.25c-.49,1.4-6.49,7-7.92,7.5-2.06.75-5,0-6.45,1.25-.49-.05-.59,0-.84-.21C732.7,323.81,732.57,322.9,733.17,321.89Zm33.33-8.12c2.19-.61,5.3.94,6.88,0h3.12c-1.13,3.25-4.4,5.26-8.12,6a6.53,6.53,0,0,1-2.71-.41,10.27,10.27,0,0,0-6.88,1.46c-.16-.22-.13-.2-.2-.63a1,1,0,0,0,.62-.62C761.55,317.66,763.16,314.68,766.5,313.77Zm37.09-3.55h1.66c-.39,1.17-1.19,1.62-2.09,2.29-.61.63-1.24,1.26-1.87,1.88-1.53,1-4.5,1.17-6.46,1.67h-3.12c-2.12.56-6.85,1.35-7.51,2.71-.81-.16-.51-.21-1-.22.59-1.13,4.63-5.87,6.24-6.45h1.67a36,36,0,0,1,6.46-1.46,5.36,5.36,0,0,0,3.13-.42A15.61,15.61,0,0,0,803.59,310.22ZM661.91,338.77c.38-3.65,8-2.61,10.42-4.38h3.75l.83.83a3.79,3.79,0,0,0,.21,1.87v.63l-.42-.41c-.49,1.55-2.14,1-3.53,1.66-.46.21-.8.87-1.25,1-1.36.53-2.47.28-3.76.83-.54.24-1.34,1.05-1.87,1.26-.9.35-2.22-.19-2.92.21C662.37,342.1,661.14,339.86,661.91,338.77Zm-49-1.46c3,.12,5.32,1.75,7.51,2.7l1.66.21c3,1.22,6.79,2.41,9.79,3.75l-.2.21c-2.16,1.44-6.24,1.4-9,2.29-.43.14-.89.71-1.26.84l-2.5.21c-.52.18-1.58.84-2.08,1l-4.59.41c-2.53.83-5.89,1.6-8.32,2.3h-2.09c-1.53.46-5,1.87-6.25,1.66-1.59-.25-2.13-1.39-3.33-1.87.42-2.26,3.19-3.22,4.79-4.38l1.46-1.66c.77-.46,1.58-.36,2.29-.84s1.12-1.19,1.87-1.46c1.51-.52,2.53-.24,4-.83l1-1.05C609.65,339.58,611.42,338.88,613,337.31Zm-4.79-14.17c1.06.33.67,1.28,1.46,1.66a8.94,8.94,0,0,0,1.46.22c0,.85.28,2.16.21,2.71-.15,1.07-.7,1.59-.42,2.92s.93,3.53.21,5c-.85,1.73-3.65,3.12-5.42,4l-.21-.21c0-.92.25-2.11.21-2.49.84-.9,3.09-1.29,3.75-3.35.17-.21.07,0,.21-.41a2.2,2.2,0,0,0-1.88-.62c.51-1.16,1.88-3,1.67-4a3.22,3.22,0,0,0-.21-1.05,10.09,10.09,0,0,1-3.13-.82,2.09,2.09,0,0,0-1.24.41c.24,1.4,1.28,1.3,2.5,1.66-.19,1.78-1.22,2.67-1.46,4.38-1.31.24-1.06,1-2.09,1.45V335h-.2c.11-1.29.55-1.88.62-3.13-3,0-3.22,4.43-3.13,7.08-.13-.14-.27-.27-.41-.41a5.37,5.37,0,0,1,.21-3.13,3.21,3.21,0,0,0-.42-1.88c-1.85.32-2.93,4.81-1.87,6.46v.42c1.36.09,1.58.22,2.29-.62h.2c-.06.14-.13.27-.2.41h.2v1.25s-5.86,3.55-6.24,3.75l-.21-.41c-.38-.38,2-4.26,2.5-4.59a3.88,3.88,0,0,0-.21-1.25c-1.43.15-3.13,3.26-3.74,4.38H593c.1-1.55,1-4.08,2.5-4.79-.11-1-.33-.94-1-1.25-.66.62-1.18.6-1.46,1.66h-.62c-.1-.83.09-.8-.41-1a5.16,5.16,0,0,1,2.7-3.34v-.82l-1-.22a16.13,16.13,0,0,0-2.3,2.3c-.37-.13-.21,0-.42-.21-.43-.6,0-2.24-1-2.92,1.13-1.16,3.09-1.25,4.58-2.07.38-.22.78-.87,1.25-1,1-.38,1.72-.13,2.5-.63l1.05-1,1.86-.62,2.93-3.13C604.75,323.66,607,322.43,608.16,323.14Zm-23.75-60.41c.58-2.63-.61-4.65,0-5.63.88-1.58,3.05.78,4,1.25,5.22,2.67,6.59,2.59,9,8.33,1.46,3.52,1.26,8.46,2.3,12.92v2.92a18.39,18.39,0,0,1,.63,5.41c-.59,3.45-3.09,11.5-2.09,14.38.9,2.58,3.81,6.95,5.42,9.17.73,1,1.94,1.93,2.49,3.12s.39,1.93.84,3.13c.37,1,1,1.49,1.05,2.91-4.62.28-5.36,3-7.92,4.79-.81.57-1.36.19-2.09.63h-.21c.74-1.4,2.16-2,2.92-3.34l-.41-.41c-2.73.24-5.47,3.84-6.66,5.83-.5,0-.61,0-.84.2h-.42a3.49,3.49,0,0,0,.2-1.65c1.91-1.32,4.54-5.6,7.09-6.05.07-.21.14-.42.2-.62-.13-.14-.27-.29-.41-.42-.64-.3-2,.51-2.5,1h-.41a7.75,7.75,0,0,1,2.5-2.71v-.83c-2.07.12-2.84,1.54-4.38,2.29-.16-.66,0-.71.21-1.46l-.21-.2c-.8,0-1.06,0-1.45.42H593c.21-.49,0-.35.22-.84.3-1.36,3.74-2.92,5-4.17.17-.21.08-.05.21-.42l-.63-.21c-1.54-.61-4.2,2.4-5.62,2.92-.21.17,0,.08-.42.21-.67-1.4-1.61-4.07-.83-5,.27-.51-.1-.15.42-.42s1.39.45,2.49.21c.84-.18,1.88-.51,2.72-.62v-.63c-1.55-.09-4.52-.53-5.21.21-1.19-.38-1.89-2.12-2.51-3.13a19.69,19.69,0,0,0,2.29-2.7l.22-.22h-.22a.85.85,0,0,0-1-.41c-1.51.24-4.33,4.11-4.59,5.63-.78,0-.74.11-1-.42h-.2c.41-1,1.27-.76,1.87-1.46-.08-.21-.14-.42-.21-.62.84-2.15,2.87-7.74,5-8.33-.15-.69-.21-.5-.41-1.05h-1.68a41,41,0,0,0-3.54,5.63v.21a2.08,2.08,0,0,0-.21-.21c-.1-.23-.08-.91.21-1,0,0,0-.82-.21-.42l-.2.2c.61-2.82,3-8.57,5.41-9.37a2.71,2.71,0,0,0-.2-.83,4.19,4.19,0,0,1-1.26-.21c-1.5,1.57-3.62,3.4-4.37,5.62H584c.52-3.34,1.52-8.39,4.57-10.42v-.61c-.35-.14-.2-.05-.41-.22-2,.21-2.56,2.11-3.55,3.34-.06.06-.13.14-.2.2v-.2H584c.44-2,2.22-9.79,3.54-11.25,0-1.08-.21-1.23-1-1.46-1.34,1.34-1.1,1.91-2.09,3.34v.2h-.2c.06-1.87.14-3.75.2-5.62A32.27,32.27,0,0,1,584.41,262.73ZM584,279.39c.36.13.19,0,.41.21C584.05,279.46,584.21,279.56,584,279.39Zm-30-29.17c.25-.16,1-.25,1.25-.41,4.68,1.91,5.11,7.13,8.34,10.41-.48,1.09-1.93,1.09-2.92,1.67a20.66,20.66,0,0,1-2.71,1.46c-1.07.39-2.08.23-2.91.83-1,.71-1.9,1.72-2.92,2.5s-1.38,2-2.09,2.92c-1,1.35-2.54,2.56-3.54,4-.82,1.15-1.22,2.85-2.08,3.95a40.65,40.65,0,0,0-3.13,4.79c-.48.89-.49,1.87-1,2.71s-1.34,1.61-1.87,2.5c-.15-.07-.9-7.18-.42-8.12s1.6-1.79,2.09-2.71c.85-1.63.75-2.93,1.45-4.38,2-4,4.23-8.33,6.25-12.29C549.62,256.33,550.28,252,554,250.22Zm-38.54-62.71H515a4.58,4.58,0,0,1,.83-2.29v-.42c-.36-.13-.21,0-.42-.2-1,.19-1.44.92-1.88,1.66h-.2c0-1.86.49-4.64-.42-5.62v-.42c-1.66-.19-1.76.27-3.12.62-.22-.16-.06-.07-.42-.2a6.11,6.11,0,0,0,.83-3.13c-1.54.13-1.82,1.36-2.29,2.5a3.15,3.15,0,0,1-1-.21c.13-1.49.55-3.49,1.67-4.58v-.83c-.91,0-.84.22-1.88.41a3.84,3.84,0,0,1,.62-1.87c-.21-.17-.05-.08-.41-.21s-.05-.07-.42-.2c-.5.51-1,.64-1.25,1.45-1.23-.21-1.86-.68-2.71.2h-.41a4.76,4.76,0,0,1,.83-2.49,2.33,2.33,0,0,0-.42-1.05c-3.07.05-2.15,3.9-3.33,5.83v.42h-1.66c.92-2.85.77-6.12,2.08-8.54.66-1.23,2.32-1.66,3.13-2.71.36-.47.35-1.31.82-1.66.89-.65,4.45-1.83,6-.83a9.71,9.71,0,0,0,2.71-.21c-.08-1-.19-1.05-1-1.26,1.35-2.46,2.92-4.94,5.2-6.45a3.41,3.41,0,0,0-.2-1c-2.83.19-4.5,4.38-6.25,5.62l-.21-.21c.18-1.37.51-4.13,1.25-5.21.17-2.34,3.53-3.95,5.21-5,1.48-.93,2.71-2.35,4.58-2.92a14.56,14.56,0,0,1,7.5,0c2.3.51,4.22.27,6,1.25,2.43,1.31,4.61,4.1,6,6.46a5.94,5.94,0,0,0,1.88-.21c-.11-2.12-4-6.54-5.63-7.08v-.42A17.46,17.46,0,0,1,540,145h1.66c2.88-1.12,5.28-3.08,9.17-1.67,1.76.64,3.18,2.58,4.79,3.34.81.39,1.41.18,2.08.63,1,.66,4.51,4.2,3.13,5.62.18.87.41.7.83,1.25a18.52,18.52,0,0,1,5.42.42,38.06,38.06,0,0,1,.21,14.38c-.39,1.85.72,3.48,1,4.78a5.34,5.34,0,0,1-.21,1.67,20.35,20.35,0,0,0,.42,3.12,7.21,7.21,0,0,1-.21,2.5l.21,4.38a22.42,22.42,0,0,0-.21,6.24,30.35,30.35,0,0,1-4.59-.62l-1.66.22c-3.27-.56-7.49.44-10.42,1l-1.25-.22c-3.61.67-7.3.41-10.41,1.25l-4.38.22a48.07,48.07,0,0,0-5.21,2.49c-1.16.57-2.39.53-3.33,1.25h-.63a5.24,5.24,0,0,1,.63-1.46c.29-.6.39-.58,1.25-.62a20.47,20.47,0,0,0-.42-7.5h-1.46c0,1.08-.15,4.1.42,5-.29,1.69-1.8,2-2.08,3.75h-.63c-.13-.36,0-.2-.2-.42,0-.92-.09-1,.62-1.24-.41-2.06-1.31-3.44-1.26-6.25-.42.07-.39.05-.62.2s-.2,0-.42.22c-.65.82-.19,1.88,0,2.91l-.83.83c-.34.93.46,3.05.83,3.55-.17.88-.37.74-.83,1.25h-.21v-1.05c-1.15-.25-1-.79-2.5-.83-.07-1.15-.16-3.38.22-4.17-.16-.65-.14-.43-.42-.83a2.35,2.35,0,0,0-1.67,1.45h-.42a26.37,26.37,0,0,1,.62-5l-.2-.2C516,186.92,515.84,187,515.45,187.51ZM516.7,210c.39-.69,1-.88,1.46-1.66a6.77,6.77,0,0,1,1.25.42c-.08.83-.47,2,0,2.7.7,1.47,1.83.28,3.13.62.51.15,1,.68,1.66.84a3.59,3.59,0,0,1,1-.62c0-1.79-5.94-6.72-7.5-7.09a4,4,0,0,0-1.45,2.08h-.42a9.4,9.4,0,0,1,0-3.13c5-2.32,9,3.12,10.83,6.67,1.55.51,2.5.31,3.33,1.47.49-.06.59,0,.83-.22l.64-.2c-.12-3.5-2.24-11.42.2-14.17a26.21,26.21,0,0,1,4.59-2.29l3.54-.21c3.66-1.19,8.57-.62,12.29-1a30.54,30.54,0,0,1,3.75-.62c2.35,0,8.3-1.24,10,0a3.47,3.47,0,0,1,1.66.41c.05,1.25.37,2.06,0,2.71a7.86,7.86,0,0,1-3.33,2.07,2.74,2.74,0,0,1-.21,1.47,3.14,3.14,0,0,0,.42,1.87c1.14-.27,1.42-.77,2.71-.83a3,3,0,0,1-.21.83c-.08.3-1.23.7-1.67,1.26s-.8,1.73-1.46,2.29c.21,2,1.51,3.5,2.09,5.2.32.95.14,2.14.62,2.92a5.89,5.89,0,0,1-1.25,2.5,3,3,0,0,1-2.49-.2c-1.34,0-1.35.34-2.09.83v.83c1.16.17,3.7,1,4.58.42h.42c-.25.85.43,2.76,0,4.58-.89,3.76-.88,8.3-2.71,11.25a20.79,20.79,0,0,1-3.12,3.75c-1.18,1.1-3,1.13-4,2.5-7.8-.07-8.25-1.58-12.71-4.58-1.6-1.07-3.19-1.65-4.79-2.71-1.31-.87-2.43-2.26-4-2.92.28-.49.61-.36,1.25-.62a20.7,20.7,0,0,0-.63-2.09c-.5-2.13.33-4.51.42-6.45-1.32.15-1.59,1.63-1.67,2.91h-.2c-.35-1.24,0-3.56,0-6H533c-.13.55-.51.87-.63,1.25-.06,1.67-.14,3.34-.2,5l-.62.2c.2.17,0,.07.41.21v.42l-.21-.22h-.42a42.82,42.82,0,0,1,.22-7.08l-.42-.21v-.2h-.22c-.21,1-.67,3.85-.41,4.37v.21c-.55-.17-.48-.26-1-.41l-.21-1.05-1.05-.21a1.76,1.76,0,0,1-.82.63c1.45,3.24,2,7,3.95,9.79,1.33,1.91,5.41,3.64,7.51,5s4.23,3.42,6.45,4.79c.6.37,2.52.88,2.92,1.25,1,1,1.85,6,2.92,7.5-.21,1.57-2.86,4.43-3.75,5.84-.55.85-.34,1.91-.84,2.91s-1.38,2.13-1.87,3.13c-.75,1.52-.89,2.9-1.67,4.37-1,1.81-3.6,5.61-4,7.71a1.6,1.6,0,0,0-1,0c-.05-.58.08-2.17-.42-2.91s-1.49-.62-2.08,0h-.21a13,13,0,0,0-.62-2.92,2.94,2.94,0,0,0-1.88.62,12.76,12.76,0,0,1,0-5h-.2c-.22-.18,0-.08-.42-.22-.32.83-.14,1.36-.62,2.09-.26.21-.19,0-.64.21,0-2.08,0-4.69.84-5.84l.21-.21V259c2,.93,3.19,4.36,4.38,6.25.06.14.14.29.2.42h.42c.07-.13.14-.28.21-.42a4.34,4.34,0,0,0-.42-2.29c-.7-1.23-3.45-5-4.79-5.21v-.21c-.41-.09-.26.09-.41.21-1,.26-.74.84-1.26,1.46-.13.36,0,.2-.21.42v-.21c-.7-.83,1.26-5.24.83-6.67s-1.28-3.46-1.66-5c-.12-.49.2-.54.21-.83a5.55,5.55,0,0,0-.41-2.08c-.41-1.45-.09-3.47-.85-4.59.06-1.3.12-2.19-.61-2.71-.08-.06-.14-.14-.21-.2a21,21,0,0,0-2.09,3.12c-.4.8-.34,1.63-.82,2.29v.42H524a5.48,5.48,0,0,1,.83-3.54c0-.81.1-.95-.41-1.25-.67-.15-.67.59-1.68.84a14.74,14.74,0,0,1,2.09-8.13c.62-1,1.63-2,1.87-3.34-2.27.44-2.54,3.22-4.16,4.38l-.22-.22c.1-2.21,1.09-5,2.92-6-.28-1.56-.91-.77-1.88-.42v-.21c-.2-.45.2-1.24.64-1.66-.06-.49,0-.59-.21-.84s-.69.07-1,.42c-1.45-1.93,1.5-3.51,2.09-5.21.16-.3,0-.36-.21-.83l.83-.43v-1.24c-1.15,0-1.26-.13-1.66-.84a5.68,5.68,0,0,0-2.09.63c-.78-.64-1.5-.51-2.5-1C517.68,213.38,517.65,211.43,516.7,210Zm10,45.84.63.2a9.89,9.89,0,0,1-.63,1.46l-.21.43h-.42C526.29,257.24,526.49,256.54,526.7,255.85Zm-2.08.83H524c-.15-1.9.58-2.25,1-4.17l.63-.2.41.62C526.35,253.36,525.17,255.7,524.62,256.68Zm1.67-13.75c.64.7.3,1.59.62,2.71s2.28,6.34,1.88,7.08v.42h-.42C526.82,250.16,524.28,246.47,526.29,242.93Zm-2.5,9.58h-.21c-.17.54-.26.5-.42,1h-.42c-.14-.41-.27-.83-.42-1.24a2.1,2.1,0,0,0,.42-.63,2.63,2.63,0,0,1,1,.42C523.46,252.36,523.87,252.11,523.79,252.51Zm-17.92-7.08c1.78-.1,4.64-.45,5.83.62a2.92,2.92,0,0,1,2.09.63c.2,1.18.41,2.36.61,3.54-2.25.38-4.69,3.39-6.45,4.59v.62c3.11,0,3.87-2.82,6-4l.21-.21v.21c.82.33.91,1.1,1.46,1.67-.36,1-.88.26-1.87.83-1.66,1-2.66,2.94-4.18,3.75.19.67-.1.33.43.63.37.2.37,0,1,0,.46-1.89,2.95-3.15,5-3.54a6.71,6.71,0,0,0,1.47,2.5v.41c-1.93-1-5.12.66-6.25,1.88a3.08,3.08,0,0,0-.42.83c.17.22.08.05.21.42,2-.18,2.48-1.62,4-2.3s.9.78,2.7-.61a3.29,3.29,0,0,0,1.46,1.24c-1.92,1.65-5.82,2.9-8.12,4.17v.83c3.55-.36,5.13-3.28,8.74-4,1.39,1.49,3.18,4.13,4.8,5.21-.07.21-.14.42-.2.63-2.79-.06-8.24-2.15-10.22-.63l-.41.21c.13.21.27.42.41.62,1.58.17,3.82-1,5.62-.41.47.16.84.89,1.26,1,1.62.6,3.39-.43,4.16,0,2.1.49,2.14,2.38,3.33,3.74a28.75,28.75,0,0,1,2.93,3.13c.93,1.55,1.28,3.71,3.33,3.55.19.7.65,1.07.83,1.67.43,1.45-.08,3.74.2,5s-.37,3.67-.2,4v.42h-.21c-.78-1.49-2.44-2.36-3.33-3.75-2.28-3.58-6.4-9.92-10-11.88-.75-.4-2.32-.28-3.12-.62-2.12-.89-4.22-2.51-7.51-1.66-1.52.39-3,.69-4.38,1-2.09-4.4-1.39-11.29-2.49-15.62-.52-2-.26-4.52-1.05-5.84C503.49,246,504.38,247.41,505.87,245.43Zm-4.58,8.33h.62c.35,1.58.67,2.61,1,4,.31,1.14-.13,2.45,0,3.13.36,1.86.29,3.38.62,5,.5,2.31.33,4.81,1.46,6.45.16,1.29.74,1.05,1.46,1.67,2.15-.17,5.4-2.18,7.71-1.67a16.67,16.67,0,0,1,2.5,1.26c1.61.59,3.35.61,4.79,1.45,3.4,2,6.82,7.92,9.18,11.25,1.76,2.53,3.9,4.11,4.78,7.71.36.13.2,0,.41.21,2.66-.1,5.48-6.74,6.47-8.95a63.79,63.79,0,0,1,9.79-15c1-1.15,1.51-2.62,2.71-3.54s2.4-1.06,3.54-1.87c.43.08.41,0,.62.2.64,1,0,2.43.42,3.75a19.45,19.45,0,0,1,1,7.29c-.08.93.67,2.45.63,3.34-.3,6.33-.16,11.23-2.71,15.62-1.9,3.27-4.28,5.83-6.46,8.75-1.13,1.51-3.35,2.84-4,4.8-1.16.22-4.76.67-6.25.21-.14,0-.7-.62-.83-.63-.85-.11-.82.83-1.88.63-.72-.15-1.87-.84-2.5-1-1.6-.51-3.57,0-4.79-.83-.2-.34,0,0,0-.63-1.27-.55-1.55-1.33-2.5-2.08v-1h.63c-.18-1.68-1.28-2.33-1.88-3.54s-.38-2.58-1-3.54v-.42a3.63,3.63,0,0,0-1.25.21c-.16,1-.11,2.16-.21,3.75h-.21c-.63-1.87-1.83-3.35-1.88-5.84a2.68,2.68,0,0,1-.82-.21,4.1,4.1,0,0,1-.63.84,56.66,56.66,0,0,0,1.67,6.88v.2c-2-.33-4-7.05-4-9.58a1.94,1.94,0,0,0-.2-.21h-.83c-.26,1.4.76,6.33,1.66,7.5v.22c-1.82-.79-.78-1.76-1.46-3.34l-.83-.83a17.14,17.14,0,0,1-1.88-5.84c-.59,0-.3-.15-.62,0-.72-.41-2.7-4.25-2.91-5.42h-1.46c.06,1.58,1.57,4.71,2.08,5.63,1,1.86-.16,3.79,1.88,4.58-.22.17-.06.08-.42.21a10,10,0,0,0,.83,1.25v.42c-1.69-.74-3.25-4.3-4.37-5.84-.92-1.24-2.41-2.12-3.34-3.32a55.25,55.25,0,0,1-8.12-15.85c-.07-.76-.15-1.53-.21-2.29-1-3.1-1.92-6.34-2.92-9-.33-.87-.13-1.47-.62-2.08C496.2,256.52,500.13,255.43,501.29,253.76Zm-12.93,2.92h4.17c.08.28.14.56.21.83a11.51,11.51,0,0,1,2.3,4c.06.63.13,1.26.2,1.88a71.21,71.21,0,0,1,2.5,6.67c.66,2.27.44,3.88,1.26,5.83a38.51,38.51,0,0,0,3.75,6.45c.56.85.51,1.8,1,2.71s1.7,1.66,2.28,2.5c.77,1.11,1.27,2.09,2.09,3.13.54.69,1.56,1.16,2.08,1.88s.53,1.69,1.05,2.49,1.53,1.52,2.08,2.29c.8,1.13,1.28,2.24,2.08,3.34,1.81,2.47,9.87,6.71,13.12,7.92,2.38.87,5.24.4,7.72,1.25.57.19,1.54.87,2.08,1h10c.77-.36,4.26-5.43,5-6.46.94-1.32,2.53-2.11,3.53-3.34,2.52-3,4.21-7.34,5.43-11.66.4-1.43,1.17-4.31.62-6.46-.45-1.78,0-3.92-.41-6.05s.32-6.74-.84-8.53c-.19-6.8.22-4.39,4.17-6.68-.09-2.25-2.24-6.32-3.54-7.28v-1a32.81,32.81,0,0,1,11,.21h2.91c1.21.44,1.85,1,3.75,1a132.1,132.1,0,0,1,1.05,22.92,29,29,0,0,1-.62,4.17v2.92c-.11.39-.61,1-.43,1.66.63,2.15-.3,5.06,0,8.54.46,5.22.86,12.43,1.88,16.88v3.13c.61,2.56.56,5.57,1.25,8.33.89,3.52,1.36,7.64,2.29,10.63.58,1.82,1.78,4.33,1.46,6.45l.21,1.88a31.84,31.84,0,0,1-.42,6,5.23,5.23,0,0,1,0,2.08l-1,1c-.63,1.56.18,3.34-.63,4.58-1.82,1.47-6.31,1.31-8.95,2.09-6.12,1.78-13.42,3.05-19.37,5-2,.64-7.14.89-8.34,1.87a4.06,4.06,0,0,1-1.25-.21c.22-4.38,5.16-11.53,7.92-13.54v-.63c-2.07.31-2.77,1.92-3.76,3.34-1.7,2.46-3.95,4.69-5.41,7.5-.58,1.12-.36,2.8-1,4-1.52,1.21-4.35.7-6.66,1.25a62.23,62.23,0,0,0-6.66,1.66c-1.78-3.53-3.53-7.82-6.47-10.2v-.63h-.61a14.35,14.35,0,0,0-3.14-4c-.48,0-.58,0-.83.21l-.63.21c0,1.09,3,4.91,4,6.25.27.4.93.48,1.24.83.49.53.37,1.54.84,2.09a18,18,0,0,1,2.28,2.91c.41.76.32,1.3.85,1.87v.63c-5.53,1.31-11.71,2.27-17.09,4-3.08,1-8.34.5-10.62,2.08h-1v-.2a2.4,2.4,0,0,0,1-1.05c3,.07,3.1-2.15,4.37-3.75v-.21c-1.05.11-1.05.62-1.67.84l-1.66-.22a5.77,5.77,0,0,0-2.08,1.88h-.42a6.57,6.57,0,0,0,.42-2.08h-1.47c.44-3.27,5.11-12.36,7.92-14v-.42c-2.18.24-2.15,2.54-3.33,3.76-3.56,3.65-5.88,9-8.54,13.53h-.63c-.13-.35,0-.2-.2-.41.13-2.75,2.16-3.3,2.49-5.62a2.23,2.23,0,0,0-1.25.2H495c.19-1.82,1.44-2.82,2.28-4,.45-.6.25-1.37.63-2.08.77-1.43,3.31-5.38,4.58-6.25v-.62a8.51,8.51,0,0,0-2.5,2.7h-.2a7.27,7.27,0,0,1,.62-1.25v-.62H500a20.12,20.12,0,0,1-2.49,3.74c-.07.08-.15.14-.22.22v-.22c-.39-.66.62-1.49,1-2.29,1.18-2.18,2.44-6.53,4.59-7.49-.19-.67.12-.33-.42-.63-.21-.17,0-.07-.41-.21a23.83,23.83,0,0,1-1.67,2.29c-.17.2-.69.23-.83.42-1.82,2.2-2.58,5.31-4.58,7.29-.22.17-.06.09-.42.22-.25-.25-.59-.39-.84-.63.22-.36,0,0,0-.42a16.26,16.26,0,0,1,2.09-1.25c1.21-3.24,2.42-9.16,5.83-11.46-.16-.92-.24-1-1.25-1a11.11,11.11,0,0,1,2.92-2.92v-.62c-1.61.53-3.24,2.8-4.17,3.54v.21H499a9.41,9.41,0,0,1,2.7-4.38v-.41a2.69,2.69,0,0,0-.83-.42l-.21-.21-1,1v.22h-.21c.62-2.69,6-9.93,8.54-10.63v-.83c-1.41.45-6.06,5.13-6.88,6.45h-.41a7.14,7.14,0,0,1,2.5-3.75V330a2.19,2.19,0,0,0-1.25.22h-.42a29.28,29.28,0,0,1,2.92-4.8c.53-.71,1.37-1.07,1.87-1.87l.21-.21-.42-.21c-.52-.55-1.5,1.45-1.87,1.88-1.79,2-4.61,4.41-5.62,7.08h-.22l-.2-.21a46.53,46.53,0,0,1,5.63-11.67c.4-.12.61,0,1-.2.87-.34.87-1.14,1-1.67l-.21-.2c-3.36.11-6.28,7.59-8.75,9.58v.41a6.11,6.11,0,0,1-.42-3.34c.15-2.78,1.29-1.07,2.09-2.29.06-.42.14-.83.2-1.24.42-.82,1.25-1.69,1.67-2.5s.5-1.84,1-2.71c.39-.63,1.23-1.18,1.67-1.88l1.25.21.21-.21v-.83c-2.68-.25-6.54,4.91-7.3,7.29h-.62c.07-2.08,3.29-8.49,4.59-9.37v-.42c-2.39.16-2.9,3.57-4.38,4.79v.2h-.42a6.58,6.58,0,0,1,0-3.12c0-.22,1.24-.37,1.67-.83s.3-1.12.62-1.67c.74-1.23,2.17-2.12,2.92-3.33l.21-.21a2.12,2.12,0,0,1-.62-.42,3,3,0,0,0-2.29,1.46h-.64c.7-1.93,1.4-3.13,2.09-4.79l-.62-.21a8.7,8.7,0,0,0-1.88,2.51h-.41c.3-1.73.92-5.53,2.49-6.67-.08-.43,0-.4-.2-.63-.43-.27-.59-.14-1.05,0a19.52,19.52,0,0,1,2.29-5.62v-.21c-1,.24-1.93,2.12-2.07,3.13-1.11-.11-1.34-.36-1.88.41h-.42c.37-.54.44-1.68,1.46-2.09-.08-1.24-.53-1.27-1.25-1.24.42-1.23.18-2.8,1.67-3.34-.09-.42-.05-.4-.22-.62-.25-.54-.21-.45-.82-.63s-.5-.05-.84.42c-2.44-1.34,2.85-5,.21-6.46.16-.83.39-.75.63-1.46a2.12,2.12,0,0,1-.42-.62,2.3,2.3,0,0,0-1.67.62V280a9.52,9.52,0,0,0,.21-1.66c-.43-.09-.41-.05-.62-.21a3.69,3.69,0,0,0-2.3,1.87c-.45-.21-.41-.8-.63-1.46.69-.7.69-1.86,1.26-2.7s1.52-1,1.87-2.09c.22-.54-.31-1.05-1-1.25A5,5,0,0,1,495,270c-.11-1.07-.32-.92-.84-1.47-1.46.16-2.71,2.08-3.33,3.14-.4-.17-.54-.62-.83-1.25-.07-.12,2.24-5,2.7-5.22s.79.11,1.46-.21v-1.24c-2.1,0-4.34,2.73-4.79,4.16a1.88,1.88,0,0,1-.83-1.46c-.57-1,2.33-4.76,3.53-5.21a2.22,2.22,0,0,0-.41-1c-2.44.18-2,2.58-3.75,3.34v.21h-.42a4.54,4.54,0,0,0-.42-1.46c0-2.52,1.24-3.32,2.93-4.17v-.42c-1.94,0-2.13.5-3.13,1.25v.21c-.73-.8-.56-1.81-1.87-2.08-.08-.35-.14-.7-.22-1.05A6.07,6.07,0,0,1,488.36,256.68Zm-53.12,40c3.37-3.54,6.54-7.17,10-10.62.9-.91,2.86-2.14,4-3.23.06.66.13,1.31.2,2-1.4,1.46-4.37,6-6.67,6.05-1.41,3.16-4.72,9.09-7.29,10.83v.63c2.23,0,4.15-3.65,5-5.22h.2a10.08,10.08,0,0,1-2.91,6.67,3.57,3.57,0,0,0,.2.84c.49-.05.59,0,.85-.21.52.29.78,1.15,1,1.67h1.25c.15-1-.27-2.08,0-2.5.5-1.09,1.78-1,2.29-2.29h.42a5.12,5.12,0,0,0-.42,2.29c.49-.05.6,0,.84-.22,2.06-.87,2.25-8.42,3.33-10.82.41-.91,1.37-1.41,1.67-2.5l.63-.21.2.21c0,.92.13.77-.42.83a6.22,6.22,0,0,0,0,1.67l-1,.83c-.82,1.23-1.14,3.45-1.67,5.21-.67,2.3-.15,5.13-1.24,6.67v.42h.41c.46-2,1.49-4,2.09-5.84s.39-3.77,1.45-5c.14-.35.05-.19.22-.41a9.37,9.37,0,0,1,.41,2.29c.45-.69,0-1.52,0-2.29.08-2.28-.05-5.46.63-6.46l.21-.21v.21a1.37,1.37,0,0,1,.42,2.09,5.19,5.19,0,0,0,.2,1.66,2.24,2.24,0,0,0,1-.41c-.07-2.25,0-9.56.41-10.63v-.42l-.61.21c-.36.89-.35,3-.64,3.54,0,1.66-.37,1.84-1.45,2.29l-.21-.62c-.16-.32,0-.51.42-.84-.24-.83-.6-.78-.83-1h-.22c.08-.13.15-.27.22-.41l-.22-.21h.63v-.62c-.67.23-.41.25-.93.21a4.05,4.05,0,0,0,.52-.84c.87-2.05,5.05-5.07,6.66-6.88,2.56-2.87,4.56-6,6.88-9.16.93-1.26,2.59-1.91,3.54-3.12h.42c.59,1.67.55,7.82-.22,9.16-.52.94-1.85,1.84-2.5,2.71-1.59,2.16-2,5.11-3.54,7.29v.63l1.25-.42a31.81,31.81,0,0,1,2.5-6.46c.59-1,1.63-1.8,2.09-2.92h.42c.61,3.3.25,3.78.2,6.88h1.05c-.07-3.71-.77-9.22,0-12.29a43.38,43.38,0,0,0,.83-6.88c-.24-.47-.3-.32-.63-.63h-.2c.82-2.74,3.8-3.52,6.45-4.37,1.59-.5,3.44.34,4.58-.42,1.21.12,2.88,3.68,3.55,5.21a88.25,88.25,0,0,1,4.37,12.29c.66,2.53.12,4.68.83,7.09,1.69,5.67,1.67,10.92,3.13,17.08.15,1.6.28,3.2.42,4.79.61,3.09.28,8.76,1.25,13.13.41,1.87-.21,3.93.21,6.25a44.26,44.26,0,0,1-.21,12.29c-.1.51.29,1.37,0,2.29-.13.42-.72.89-.83,1.25.06.63.13,1.25.2,1.88-.46,2.2-.2,4.56-.83,6.66-1.39,4.66-2.79,9.39-5.2,13.12L484.82,360l-1.66.2a2.5,2.5,0,0,1,1.25-2.5v-.41a2.41,2.41,0,0,1-.62-.42,2.07,2.07,0,0,0-1.88,1.45h-.62c.86-1.19,0-.46.41-1.66a11.17,11.17,0,0,1,4-5.41v-.84c-.36-.13-.2,0-.42-.2a2.49,2.49,0,0,0-1.67.62c-1,1-4.95,8.74-5.2,10.42l-.62.2c-.15-.14-.29-.27-.42-.41.21-2.94,1.75-5.27,2.7-7.71.65-1.66,1.13-3.93,2.71-4.59-.12-.65,0-.5-.41-.83-.65-.59-1.39.56-2.08,1-.62-1.71-.5-3-1.05-4.58h.21c.25-.21.18,0,.62-.21a14.67,14.67,0,0,1,1.05,3.34,3.4,3.4,0,0,0,1.25-.43c.1-2.36-2.1-6.75-.21-8.95v-.63h-.21c-.26.51-.56.81-.83,1.26-.15-.16-.28-.47-.42-.63a1.71,1.71,0,0,1,1.25-1.66c-.27-.51.1-.16-.42-.43s-.87.29-1.46.63a10.65,10.65,0,0,0-.83-2.29l-.62-.21c-.19-.45,1.68-2.91,1.87-3.53,1.5.32,1.33,2.25,1.88,3.53,1.3,3.08,3.56,8.9,3.54,13.13h.63a17.58,17.58,0,0,0-1.68-8.12c.48-2.1-1.57-6.21-2.29-8.35-.06-.76-.13-1.52-.2-2.28a47.74,47.74,0,0,0-2.51-7.08,5,5,0,0,0-1.45.41,3.76,3.76,0,0,0,.21,2.29c-2.12,1.62-2.62,5.09-4.38,7.09v.2h-.42c.45-1.83,1.91-7.14,4-8.54a2.35,2.35,0,0,0-.42-1c-.43.08-.41.06-.62.2-2.78,1.35-2.89,6.48-4.59,8.75v.22h-.42a19.19,19.19,0,0,1,4.79-12.71c-.21-.17-.05-.08-.41-.2s-.06-.09-.42-.22c-1.43,1.56-2.35,3.7-3.75,5.21-.14.36,0,.2-.21.42-.12-.77-.3-1.57-.41-2.5s.54-2,0-3.33c-.33-.8-1.43-3.72-1.05-5s1.38-3,1.67-4.16-.63-1.23-.42-2.09c.16-.63.84-1.57,1-2.29.77-2.66,1-6.84,2.5-8.75-.17-.71-.1-.53-.62-.83a17.5,17.5,0,0,1,1.46-5.83c-.09-.44-.05-.4-.21-.63a.84.84,0,0,0-1.05,0c-.3-.4.11-6.3.63-7.09-.1-.94-.26-.88-.63-1.45h-1c-.7,3.66-.29,7.77-.83,11.25-.31,2,.29,4.42-.62,5.83v.41h-.21c-.44-.64-.46-1.29-.84-1.86a3.42,3.42,0,0,0-.83-.43c-.33.63-.95,1-1.25,1.46-.13,1.11-.28,2.23-.41,3.34-.41-.48-.58-.91,0-1.25-.23-.16-.2-.14-.64-.21.36-1-.1-3.45.64-4.59a3.49,3.49,0,0,0-.22-1.24,2.63,2.63,0,0,0-.83.21,15.36,15.36,0,0,0-.83,6.24c-.49.05-.59,0-.83.21l-.63.21c0,1.72-.17,4.5.42,5.42v1.87l-1.46-1c-.73,1.66-.66,5.13-.63,7.08h1a10.85,10.85,0,0,1,0,1.67c-.91,2-3.29,2.73-4.78,4.17-1.94,1.87-4.05,3.83-5.84,5.83-1.15,1.29-1.71,2.92-3.33,3.75-1.29-2-3-3.31-4.59-5-1.26-1.33-1.92-3.18-3.12-4.58-.3-.35-.87-.35-1.25-.62s-3.06-3.35-3.33-3.76c-.75-1.11-.72-2.6-1.46-3.75-1.78-2.73-4.11-5.93-6.88-7.7C430.25,300.7,434,298,435.24,296.68Zm7.71-.42h-.21l-.2-.2a15.55,15.55,0,0,1,3.53-6.67C447.31,291.62,443.46,294.29,443,296.26Zm5.62,39.38c.45-.71,1.51-.74,1.88-1.67.5-1.27.39-3.05,1.05-4.16.32-.55,1.48-.9,1.87-1.47,2.73-4,6.29-7.18,9.79-10.41,1.18-1.09,2.95-1.68,3.95-2.91h.63a45.76,45.76,0,0,1,1.88,18.12c-.17,1.15.85,3.26.41,5-.47,1.92-2.89,8.52-2.5,10.42,1.26,6.14,6.56,12.39,4.59,19-.94,3.13,4,8.32,2.08,11v1.66c-7.36,1.64-14.95,2.08-21.66,4.17h-2.09c-1.87.48-4.28,1.37-6,1.88-.63.17-1.26,0-1.67.2-1.43-.48-2-1.77-3.12-2.49-2-1.27-5.59-2.62-6.67-4.58s-1-9.48-.41-12.09c.66-2.88,1.16-7.22,2.28-9.79,1.35-3.1,3.21-6.56,4.59-9.8,1-2.36,1.51-4.89,2.5-7.08,2.65-.52,5.54-2,6.66-4C448.82,336.25,448.51,335.75,448.57,335.64Zm-46,71.87a1.42,1.42,0,0,0-.83.22h-.21c.33-.38.18-.3.84-.42l-.43-.42c.47-.24.32-.3.63-.62v-.21h.21Zm2.5-3.95h-.21v-.41H405Zm9.17-4c-.55.28-.72-.26-1.46,0-.29.1-.42.75-.63.83l-1.24-.2c-.92.12-1.34,1.14-1.88,1.66-.29,0-.29.05-.62-.41a3.21,3.21,0,0,0-2.92,1.45H405a2.33,2.33,0,0,1,.42-.62,3.22,3.22,0,0,0-.21-1.05,3.14,3.14,0,0,0-2.29,1.47,3.67,3.67,0,0,1-.42-.84c-2.18.11-5.39,4.76-6.67,6.25h-.42c.14-1.9,1.32-2.66,2.3-4.16l.21-.22c-.34-.28-.24-.12-.41-.61a19.7,19.7,0,0,0-6.05,2.7h-.63a5.94,5.94,0,0,0,.84-1.25c.16-.26,0-.2,0-.84-.85-.38-1.22-.49-1.88.22h-.41a5.59,5.59,0,0,0,1-1.88,2.1,2.1,0,0,0-1.87-.21h-.22a6.07,6.07,0,0,0-.41-3.12c4.82-1.89,10.89-2.85,16-4.17,1.93-.5,5.89-.62,7.29-1.46,1,.12,1.49.12,2.5.21.24,1.28,0,4.4.63,5.42C414.35,399.25,414.36,399.35,414.2,399.6Zm.42-77.09c.11-5,1.91-14.84,5.21-16.86,1.63-1,4.12-.06,5.62-1.47a9.76,9.76,0,0,1,1.66.42l1.88-.42c1.32,1.37,3.1,2.34,4.17,4,.43.66.41,1.42.83,2.08a20.39,20.39,0,0,1,1.88,2.5,14.8,14.8,0,0,0,1,2.71c1.25,1.85,3.55,3.11,5,4.79,1.08,1.27,1.68,2.87,2.71,4.17.75.95,2.21,1.48,2.91,2.5.93,1.34.85,2.12,1.88,3.12a6.87,6.87,0,0,1-1,3.34c-.6.95-.47-.06-1.05.42-.2.62-.42,1.25-.62,1.87-.95,1.45-2.92,1.73-4.38,2.71-2.62-.28-3.07-2.58-4.58-4-1.27-1.17-3.71-1.92-5.2-2.92a48.65,48.65,0,0,0-6.26-4c-1.34-.58-2.81-.49-4-1.24-.2-.48-.05-.5.42-.84-.08-.43-.05-.4-.2-.63s-.47-.27-.64-.41a15,15,0,0,0-2.91,1.46C417,325.74,416.31,323.33,414.62,322.51Zm3.75,21c1,1.38-.13,5.36-1.25,6.46h-.42C416.74,346.77,417.9,345.77,418.37,343.55Zm-.21,50.21a1.39,1.39,0,0,0,.21.21v.42c-.17.22-.08.05-.21.41h-.83a2.12,2.12,0,0,1,.41-1Zm-.2-7.91a2.61,2.61,0,0,1,.82-.21c.13.82.64,2,.42,2.5v.41a2.71,2.71,0,0,1-.83-.2C418.22,387.52,418.09,386.69,418,385.85Zm.41,12.92c-.36-.13-.21,0-.41-.22C418.31,398.69,418.15,398.6,418.37,398.77Zm25.83,9.79c-.8,1.61-3.57,1.48-5.2,2.29-1.44.71-2.83,3.46-5.22,3.13-.87-.13-2.25-.67-3.12-.84s-1.7.53-2.51,0h-5.83c-3.55-1.92-5.33-6.05-5.2-11.66h1.25c1.23-1.43,2.89-2.59,3.53-4.58.43.07.41,0,.64.2,1.39-.27,6.11-7.46,6.25-9.16-1.69.16-2.69,2.72-3.34,3.32v.22l-.42-.22v.22h-.21c1.13-1.74,3.27-3.39,4-5.42.15-.23.13-.19.2-.63-1.83.23-5,5.44-6.25,6.87h-.42a3.85,3.85,0,0,0-.2-1.24,24,24,0,0,0,2.91-4,4.1,4.1,0,0,0-1-.41,31.71,31.71,0,0,1-2.29,2.49c-.21-.05-.09.06-.21-.2-.58-1,.61-1.61,1.05-2.71a2,2,0,0,1,.2-.21h-.2v-.42c-1.05,0-1.2,0-1.47.83-.5-.27-.14.1-.42-.41s.25-1.05,0-1.87c-.77-2.66-.87-5.9.63-8.14v-.41a4.58,4.58,0,0,0-.83.41c-1.11.81-1.05,2.68-2.08,3.55v.21H418a46,46,0,0,1,.82-5.42c.19-1.16-1-1.2-.82-2.29a18.46,18.46,0,0,1,3.94-6.87,2.71,2.71,0,0,0-.2-.84c-1.53.31-2.17,2.18-3.13,3.13-.68-2.25.85-4.36,2.08-6.25.5-.76.34-1.5,1.25-1.88a3.31,3.31,0,0,0-.2-1.05c-1.18.33-1.28,1.52-2.29,2.09v.42h-.21a7.26,7.26,0,0,1,1-4.17l-1.46-1.24a44.94,44.94,0,0,1,1.87-11.05c.64-2.26.35-4.72,1.67-6.25a3,3,0,0,0-.2-1.05c-2.17.15-2,2.57-3.75,3.75v.22h-.21c.86-2.3,1.86-4.77,3.74-6v-1h-.83c-.4,1.14-1.47,1.54-2.08,2.51-.36-.13-.2-.05-.42-.21.89-.88,0-3,2.3-4.38-.26-1.35-1-.88-1.67-1.24l-.21-.22h.21c.28-.75,1.32-1.36,1.87-1.87,1.69-.79,4.72,1.43,5.84,2.09,3.21,1.85,6.56,3.16,9.38,5.4.52.43.7,1.24,1.24,1.67a38,38,0,0,1-1.87,7.72c-.77,2.54-.78,4.25-1.67,6.87-.37,1.1-1.45,2.54-1.66,3.54-.16.71.67,1,.41,2.09-.35,1.45-1.06,3-1.46,4.37-.07.77-.14,1.52-.2,2.29-1.24,4-2,12.4,0,16,1.34,2.41,4.58,3.27,6.86,4.79,1.25.83,2.13,2.26,3.34,3.12a25,25,0,0,1-1,7.92c-.5,1.45-1.33,4-.42,5.63,1.17,2.07,3.23,2.9,5.21,4A6.71,6.71,0,0,1,444.2,408.56Zm-23.55-14.38c.37.14.21,0,.42.21C420.71,394.26,420.87,394.36,420.65,394.18Zm.42.42V395h-.2v-.41Zm61.46,121.46h-.62c-.11-1.58-.53-2.66.62-3.54v-.41H483a11.5,11.5,0,0,1,.21,2.49C483,515.28,482.73,515.43,482.53,516.06Zm1.88,22.71c.23-.16.19-.13.63-.21.09.67.21.84.2,1a4.67,4.67,0,0,1-.42,1.67h-.41C484.18,540.31,483.8,539.54,484.41,538.77Zm.83-7.5c.18-.57.08,0,.42-.41h.41a15,15,0,0,0-.2,1.66,3.21,3.21,0,0,1-.42.83h-.63A2.69,2.69,0,0,1,485.24,531.27Zm0,16.25c-.53-.14-.11-.06-.62,0v-.22c-.68-1.22,1.21-3.87,1.88-5.2h.41c0,1.25-.06,2,.42,2.51-.53.85-2,2.22-2.09,2.69Zm.83,34.17.21-.42S486.44,581.4,486.07,581.69Zm29.59,37.71v.42c-1.63.11-2.8.36-3.75-.63h-.83c-.12.56-.29.79,0,1.25.72,2,3.75,1.06,5.21.42a51.32,51.32,0,0,1,3.32,4.79c.43.34.84.69,1.26,1,.73,1.23.81,2.48,1.67,3.54,1.5,1.88,2.57,4,4,6,1.61,2.41,3.73,5,4.59,8.13-.08.69-.14,1.39-.22,2.08a19.66,19.66,0,0,1,.22,5l-1.47,1.67c-1.28.28-2.93.8-4.16,1-1.81-.13-3.61-.26-5.41-.41-2.84-.73-9.84-3.66-11.67-5.41h-.21c.15-.38.57-.44.62-.63s-1.3-2.35-1.46-2.91v-1.88c-.42.08-.39.06-.62.21-.72.17-.57.29-1,.62a5.6,5.6,0,0,0,.21,2.5v.21c-.58-.27-.73-.29-1-.83-.38-.35.38-.26.2-1-.35-1.61-1.21-3.09-1.66-4.8h-1.46c-.05,1.24.66,2.69.84,4.37-1.46-.41-2.25-1.45-3.34-2.07-1.63-.94-3.41-1.61-5-2.51h0a10.18,10.18,0,0,1-2.08-1.45c-1.33-.61,0-3.86.2-5.63-.55-1-.64-.83-.62-2.08-.82.35-1.44,2.11-1.67,3.33H490a5.55,5.55,0,0,1-.42-.42c-.14-1.91-.49-5-1.46-6.24,0-2.08.93-2,1-3.76-.86.08-.88.1-1.25.63h-.42c-.14-.36,0-.21-.2-.41a7.53,7.53,0,0,1,3.54-5.63,3.51,3.51,0,0,0-.21-1.05,3.82,3.82,0,0,0-3.13,2.3h-.42a10.44,10.44,0,0,1,2.93-3.76c-.06-.47,0-.58-.22-.82-.93-.45-2.36.79-2.91,1.45h-.21c0-1.73.68-1.7,1.25-2.71s1-2.38,2.09-2.71c.94-.27,3.27.62,4.16.84,2.53.61,9.05,1.57,11.46,1,2-.44,3.84.57,5.42-.42h1.46c.81.41.5,1.33.83,2.29A18.19,18.19,0,0,0,515.66,619.4Zm.63-101c-.14.35,0,.2-.22.41-.08-.39-.35-.79-.41-1-.6-2.3,1-6.17.21-7.5v-.84c-1.39.81-2.38,5.78-1.88,7.92a17.62,17.62,0,0,0,1.25,4l1,.84c.28.69-.42,2.48-.63,3.32v3.76c-.6,2.26-.22,6.23-1.26,7.7v.42h-.2a8.3,8.3,0,0,1-1.25-3.75l-.21-.21a1.74,1.74,0,0,0-1,.21c-1,1.4.62,4,1,5.42,1,3.23.92,5.89.83,9.17v3.75c-.35,1.48-1.05,5.51-.62,7.29a22.54,22.54,0,0,1,.42,6.25,44.58,44.58,0,0,0,0,10.83c.26,2.62-1,4.81-.42,7.29.32,1.36.22,2.94.62,5-.06.55-.13,1.1-.2,1.66,1,5.1.87,9.91.83,16.25a27.49,27.49,0,0,1-5.42-.41l-6.45.41a3,3,0,0,1,.2-.83c-1.42-1.32-3.38-2.2-4.37-4a3.67,3.67,0,0,0-1.25.41,1.92,1.92,0,0,0-.21,1.25l-1.25-.21c-.13-.56-.32-1,0-1.45-.06-2.22-.83-1.06-1.67-1.46-.55-.26-.32-.7-1.25-.84a8.3,8.3,0,0,1,.84-1.86,3,3,0,0,0-.21-.84c-.85,0-1.09,0-1.46.41h-.21a5.94,5.94,0,0,1,.84-4.17,2.79,2.79,0,0,0-.84-.2,11.88,11.88,0,0,1,2.92-4.58v-.64c-2,.73-3.32,4.5-5,5.84v.21h-.21a10.55,10.55,0,0,1,4.17-9.16V584c-3.19.17-4,4.39-5.84,6l-.2.21V590c-.46-.19-.31-.18-.63-.41-.08-1.6,0-2.39,1.25-2.71a11.85,11.85,0,0,0-.42-2.09,48,48,0,0,0,4.58-6.87l.22-.21h-.22v-.42c-1.64.24-3.5,2.54-3.95,4h-.42l-.21-.21c.11-1,.12-2.63.21-3.33s3.49-5.17,4.17-5.63v-.63c-2,.15-2,1.85-3.13,2.51-.42.25-.54-.29-1.25.42h-.2c-.12-4.27,1.91-5.81,4-8.76l.2-.2h-.2V565a6.52,6.52,0,0,0-3.55,2.91h-.41c-.09-.59,0-.68-.22-1.05V564.6c.14-.34,3.29-5,3.55-5.21-.08-.42-.05-.4-.21-.62s-.05-.08-.41-.21a30.66,30.66,0,0,0-2.51,3.34h-.42c-.28-.86.07-2.12,0-2.92-.36-4.93,1.55-4.89,3.76-8.13l-.21-.2c-1.67.15-2.65,1.57-3.33,2.71h-.42l-.21-.22c.08-1.11.64-3.4,0-4.37.18-2,1.77-2.75,3.12-3.54a3.22,3.22,0,0,0-.2-1.67c-.43-.27-.58-.13-1,0-1.08-2.81-.1-3.71.62-5.63.16-.28-.08-.45-.21-1-.48.05-.59,0-.83.21h-.42c.34-1.16-.59-2.17,0-4.16.45-1.5,1.9-1.73,2.08-3.54-1,.06-1.25.22-1.66.83H488c-.23-1-.41-2.78.21-3.54.07-.15.14-.28.2-.42H489c-.09-.74.11-.53-.41-.84v-.2c-.41-.09-.27.09-.42.2H486.5c-.36.22-.19,1.32-.43,1.67a17.22,17.22,0,0,1-2.08,2.3v.2c-1.71-2.25,2.4-5.47,3.12-6.87.17-.21.09-.06.22-.42-.08-.07-.14-.14-.22-.2-2.05,0-3,1.25-3.74,2.5H483a3.4,3.4,0,0,1,2.71-3.55c.09-1.42-.62-3.72.21-4.79-.17-.82,0-.68-.83-.83a3.65,3.65,0,0,1,.62-1.46c-1.76-1.9-1-5.65.62-7.08v-.42c-2-.12-3.41,1.75-4.37,3.33-1.29-.82-.29-3.31-.62-5.2a38.3,38.3,0,0,1,0-7.72c.08-.88,0-2.68.41-3.33a2.29,2.29,0,0,0-.21-1.25c-.46-.22-.69,0-1,.42H480c.82-2.37.31-5.55,1.26-6.67,0,0-.05-.81-.21-.42l-.22.21a2.91,2.91,0,0,0,.22-1.25c.14.07.27.15.41.21-.16,1.53,0,3.81,0,5.83a2.79,2.79,0,0,0,.84-.2c1-2.61.83-5.4.83-9v-3.54a32,32,0,0,0,.63-7.09,2.68,2.68,0,0,0-1.88.41c-.13.37,0,.21-.21.43-.59-3.11,1.27-5.55,2.71-7.29a2,2,0,0,1-.62-.43c-.63.09-.71.11-1.05.43-.16.21-.13.18-.21.61-.8,0-.89,0-1.24.43h-.43c.07-4.32,1.68-13.24,4-15.21-.39-.69-.93-.43-1.25-.63a5.26,5.26,0,0,1,.22-2.3v-.4c-1.1.72-1.24,2-2.09,2.91v.42h-.21c.49-2.42.92-4.51,2.08-6.25.61-.9,1.56-1.47,2.09-2.5a2.33,2.33,0,0,1-.62-.42c-1.35.2-1.85,1-2.51,1.88h-.2c.22-5.28,2.78-10.7,3.33-14.79.09-.67-.38-1-.42-1.46,1.26-2.52.3-6.83.83-7.92,0-1.77-.73-1.37-1.45-2.29-.08-.14-.28,0-.21-.42l.21-.21c0-.15.66-.88.83-1.46l.21-2.08v-.21c.55-.89.93,0,1-1.25h.41c.53,8.56-.83,16.65-.41,23.75a108.75,108.75,0,0,1,0,11.46c-.19,1.58.31,3.58.21,4.58q.3,12.3.62,24.59a21.81,21.81,0,0,0-.62,6.66,9.82,9.82,0,0,1,.2,2.09,23.63,23.63,0,0,0-.41,4.16c0,1.39.46,2.57.21,3.75-.54,2.57-1.43,7.76-1.25,9v1c2.23.44,3.4.37,5.21.83H493c1.88.59,4.88,1.34,7.3,1.88l1-.22c2.73.45,4.52.53,6.66,1.05h1.88c2.35.57,5.21,1.5,7.71,1.88C517.61,508.92,517.14,517.11,516.29,518.36ZM487.53,581.9c.08-.14.14-.28.21-.42S487.9,581.6,487.53,581.9Zm-6.45-97.5a2.08,2.08,0,0,1,.21-.21v-.42c.51.3.24,0,.41.63Zm11.66-47.71c.25-.25.59-.39.83-.63l.43.21a4.28,4.28,0,0,0,.41,2.29c-.26.71-.59.75-.84,1.46-.36.13-.2,0-.41.21C492.39,439.22,493,437.3,492.74,436.69Zm1.67,5.21.63.2c.13.36,0,.21.2.42-.05,1.89-1.44,2.07-2.5,2.91h-.21c.05-.7-.31-.88.21-1.66C493,442.78,493.8,442.51,494.41,441.9Zm9-.22c-.46-.24-1.65-6.6-1.88-7.28a8.78,8.78,0,0,0,2.08-2.3c.48-.05.59,0,.84-.2l.83.2c0,1.67.74,5.23,1.46,6.25C506.65,440.41,504.62,440.82,503.37,441.68Zm3.74-.82c.2.45.25.59.21.82-.55,1.32-1.93,1.64-2.7,2.72h-.83v-1.46a13.6,13.6,0,0,0,2.91-2.08Zm-5,48.75-.21.2a22.53,22.53,0,0,0-1-2.5c.13-1,.46-1.1.83-1.88.59.08.44.2.83,0a6.39,6.39,0,0,1,1,2.5A3,3,0,0,1,502.12,489.61Zm1.67.62h.62c.29,1.35.32,3.25.62,4.37l-.83.63v.2c-.79-.78-.71-2.5-1.45-3.32C502.91,491,503.32,490.91,503.79,490.23Zm-2.72-5.83c-.21.16-.05.07-.41.2-.22-.17-.05-.07-.41-.2a9.06,9.06,0,0,1,0-1.26c.16-.52.36-.29.82-.83.37.39.33.76.84,1C501.7,484,501.45,484.26,501.07,484.4Zm-.82-10.84-.22.21-.41-.42c-.06-1.87.37-1.54,1-2.92a5.15,5.15,0,0,0-1.66-.2v-.42l1-1h.63c.25,1,1.11,3,.83,3.74S500.79,473.27,500.25,473.56Zm-.22,6v.62a5.37,5.37,0,0,1-.83-1.24,3.78,3.78,0,0,1,.83.41l-.2.21Zm-.2-12.29A3.2,3.2,0,0,1,498,469c-.22.16-.19.13-.63.2a17.37,17.37,0,0,0-.83-3.95c0-2,.5-2.82,1.67-3.54v-.22C498.87,462.14,500.27,466.62,499.83,467.31Zm-6.88-.42c.71.24.42,0,.42.63H494a4.56,4.56,0,0,1-.22,2.08c.2.45.18.31.42.63.65-.13.51,0,.84-.42.51-.24.6-1.53.2-2.09v-.41h.21c.18.49.08.34.42.63-.22.16-.05.07-.42.2a2.33,2.33,0,0,0,.62.42c.07.82.31,1.37,0,1.87-.46,1-1.67,1.25-2.29,2.08a1.76,1.76,0,0,1-1-.19c-.49-.53-.34-4.46-.63-5A1.55,1.55,0,0,0,493,466.89Zm-.62-3.33h.2v.62C492.38,464,492.4,464,492.33,463.56Zm7.29-22.5c-1.43-.2-.49-1.68-1.26-2.91.15-1.38.83-1.31,1.47-2.09.35.13.2,0,.42.21.82.47,1,2.29,1.24,2.7C501.39,440.47,500.47,440.4,499.62,441.06Zm2.08,0c.13.35.05.2.21.42,0,1.75-.9,2.2-2.08,2.71a4.05,4.05,0,0,1-.42-2.09,2.16,2.16,0,0,0,1.66-1Zm-2.5,6.66c-.09,1.11-.45,1.13-1.25,1.47l-.21-.22c.13-1.17.51-1,1-1.67Zm-.62-2.91c-.28.8-.74.94-1.26,1.45a2.42,2.42,0,0,1,0-2.49l1-.21A6.83,6.83,0,0,1,498.58,444.81Zm-1.67-2.29h-.42c-.27-.74-.21-1.45-.62-1.66a3.56,3.56,0,0,1,.62-1.05h.83a8.58,8.58,0,0,0,.63,1.05C497.88,442.2,497.51,441.84,496.91,442.52Zm-1.25,9c.31.52.26.39,1,.42-.3,1.39.29,5.94,1.25,7.3-.16,1.33-.8,1.16-1.25,2.08h-.42c-.14-.62-.4-1.71,0-2.29a3.69,3.69,0,0,0-.21-1.26c-.73.06-.87.08-1.24.42-.77,1.08.14,2.47-.63,3.75v.21c-.59-.5-2.1-7.58-1.46-8.54.23-2,2.37-2.41,3.33-3.75h.42c-.24.62-.52.75-1,1C495.53,451.28,495.5,451.25,495.66,451.47Zm-1.25,11c-.36-.13-.2,0-.41-.21C494.35,462.44,494.2,462.35,494.41,462.52Zm1.66,12.92.21-.21a1.48,1.48,0,0,1,.84.41c-.6,0-.3-.14-.63,0C496.49,475.64,495.68,475.6,496.07,475.44Zm.84-.21v-.42h.83V475Zm1.45-24,.64-.63h.62a49.62,49.62,0,0,1,1,6.25h.63a4.81,4.81,0,0,1-2.29,1.67A32.5,32.5,0,0,1,498.36,451.27Zm1.89-4c-.05-.47-.05-.58-.22-.82.27-1,1.1-1.17,1.67-1.88h.83c.15.36,0,.21.22.41-.16,1.34-.89,1.45-1.46,2.29Zm1.24-15v.2h-.42a9.71,9.71,0,0,0-.82-2.7c.31-1.52,1.94-1.83,2.91-2.71.88.55.68,1.65,1.25,2.5C504.19,430.78,502.57,432,501.49,432.31Zm-1.24-4.79h-.63a7.26,7.26,0,0,0-.84-3.13c0-2.31,1.74-2.22,2.71-3.54h.42c.23.66.56,2.75,1,3.33C502.89,426.29,501.2,426.34,500.25,427.52ZM499,430.85c.27,1,.55,1.94.83,2.92a11.81,11.81,0,0,1-1.67,1.46,2,2,0,0,0-.21.2c-.53-1.28-.95-3.11-.41-3.74.31-.45.64-.5,1-.84Zm-2.09-1c-.34-.52-.29-1.58-.63-2.08a4.17,4.17,0,0,1,.42-2.51l.62.21c.5,1.22.22,2.21.84,2.92C497.89,429.15,497.42,429.29,496.91,429.81Zm-.21-6.87c-.43.08-.4.05-.63.2h-.2l-.63-4.37c-.06-1.14-.2-2,.63-2.29v-.21c.57.27.68.57.83,1.25C497.13,418,496.8,421.21,496.7,422.94Zm-1.46,10.62a1.63,1.63,0,0,0,.83,0c0,1.14-.38,2.72,0,3.54v.21h-.41c-.19-.54-.24-1.12-.62-1.46A12.34,12.34,0,0,1,495.24,433.56Zm.21,12.08c.31.26.38.55.62.84-.07,1.32-2.26,3.43-3.33,3.75-.21.17,0,.08-.41.21-.08-.14-.14-.28-.22-.42C491.34,449.56,495.18,446.21,495.45,445.64Zm10.83,50.63c.87-1,3.23-2.31,3.76-3.33l.41.2c-1,1.45-2.77,2.26-2.91,4.59a11.7,11.7,0,0,1-1.05-.84C506.29,496.64,506.54,496.64,506.28,496.27Zm52.09,17.5h-.21a3.52,3.52,0,0,1,.42-1.66h1l.21.2Zm4.78,51.67h-.4c0-.77-.07-1-.21-1.25.15-1.28,3.35-6.06,4.37-6.67v-.42l-.63-.2c-1.15-.57-2.31,1.49-3.13,2.08a14.43,14.43,0,0,1-.2-5.42v-3.74c.68-2,2.91-3.12,3.13-5.42-1.71.1-1.68,1.14-2.71,1.87v.2h-.22c-.11-.6-.61-1.53-.4-2.29a10.42,10.42,0,0,1,2.7-4.36,2.75,2.75,0,0,0-.21-.84l-.62-.21c-.79.82-2.13,1.51-2.29,2.92-.36.13-.21,0-.41.21h-.22a14.67,14.67,0,0,1,3.54-6c-.18-.87-.41-.7-.83-1.24a4.36,4.36,0,0,0-2.49,2.49c-.37-.13-.22,0-.42-.21-.52-.52,1.28-3.16,1.87-3.54-.18-.67.11-.31-.42-.62a1.27,1.27,0,0,0-1.45.42h-.22c-.13-2.67.54-5.13,2.3-6.46v-1.46c-.87-.16-1.29-.17-1.88.42-.6-.65-.49-1.08-1.67-1.26a9.74,9.74,0,0,1,2.92-6.25c-.12-.65,0-.51-.41-.83-.16-.11-.47.09-.8.36h0c-.07.06-.27,0-.66.06v-.21a4.14,4.14,0,0,0,1.87-2.08l-.41-.42c-.5-.25-1.16.12-1.67.42l-.21-.21a3.7,3.7,0,0,0,0-1.46c.86-.56,1.71-1.77,2.71-2.08a13.67,13.67,0,0,1,4.16,0,42.14,42.14,0,0,0,12.09-.42c2.32-.52,5.33.27,7.08-.83a4.31,4.31,0,0,1,2.08.2c1.45,2,1.55,9.82,1.26,13.34-2.71,1.4-4.76,3.8-7.3,5.42,0,.48,0,.58.22.83a2.19,2.19,0,0,0,1,.41c1.62-1.65,4.34-2.85,5.41-5h.42c.56,2.89.39,6.39.41,9.79,0,4.5.2,9.69.22,14.58,0,3.59-.27,7.8.2,11,.3,2.11-.28,5,.21,7.29a15.63,15.63,0,0,1-.21,5.21c-.54,2.48.12,6.77.41,8.34.27,1.3-.46,2.43,0,3.33v10.21c-1.36,3-10,4.32-13.75,3.33v-1c-1.77.07-3.53,1.13-4.79.21-.29-.41-.42-2.2-1-2.92-.32-.55-.79-.48-1.26-.83-.18-.41-.12-.44.22-.84-.27-.91-.73-.46-1.06-1-.06-1.12-.13-2.23-.2-3.34l-.62-.21c-.26-.49-.23-.89-.42-1.26a4,4,0,0,0-2.29,1.06v-.22c-.46-.48,2.29-4.11,3.13-4.37v-.42c-.18-.21-.08,0-.21-.41-1.74.15-2.84,1.48-3.75,2.5h-.21c-.08-.8-.42-1.67,0-2.3.2-1.75,1.54-2,2.08-3.32.17-.22.08-.06.21-.42l-.21-.21c-.81,0-1.06,0-1.46.41H565A8.51,8.51,0,0,1,568,575v-.62c-.2-.08-.42-.14-.62-.21a15.45,15.45,0,0,0-2.71,2.71h-.42c-.47-2.33,1.27-5.84,3.13-6.46a3,3,0,0,0-.21-.83,3.26,3.26,0,0,0-2.5,1,5.88,5.88,0,0,1-.63-2.3,7.82,7.82,0,0,1,3.34-5,1.92,1.92,0,0,0-.21-1.05v-.41C564.93,562,564,564,563.15,565.44Zm4.38,24.79c0,1.88-.91,1.85-1.66,2.92h-.63a30.55,30.55,0,0,1,1.88-2.92ZM591.92,605a1.92,1.92,0,0,0,.61.41c-.64.64-1.61.86-2.29,1.47s-.86,1.41-1.67,1.87a3.61,3.61,0,0,0,.21,1c.83-.1,4.19-2.73,4.81-3.33,3.33.28,6.41,2.23,8.95,3.55,1.26.64,2.34.46,3.74,1,.9.36,2.06,1.23,2.92,1.67,1.83.89,3.64,1.17,5.21,2.28a28,28,0,0,1,5.42,5c.81,1,1.15,2.44,2.08,3.33,0,2.35-.54,1.49-1.66,2.5-.66.6-.76,1.72-1.67,2.1-1.72.68-4.77.36-6.26,1.24-1.94-.23-2-2.18-3.32-2.92a.89.89,0,0,0-1,.21l-.42.21a6.49,6.49,0,0,0,1.25,2.29,1.57,1.57,0,0,1-1.88.62h-.41a2.79,2.79,0,0,0,.41-.83c-2.33-1.62-1.6-.91-2.91-3.54-.43.08-.4,0-.63.21-.51.19-.33.23-.83.41,0,.63-.16.58,0,.84a3.81,3.81,0,0,0,1.88,2.71V630c-2.56,0-4-.18-6.47-.21-.29-.56-.88-1.06-1-1.66-.22-.84.4-1.18,0-1.88v-.42c-2.59.57-1.09,1-2.08,2.71-.41.29-.92.26-1.24.63-1.06-.5-1.88-2.87-1.89-4.37-.49,0-.58,0-.83.2l-.63.21a5.21,5.21,0,0,0,.63,3.13,3.2,3.2,0,0,1-.21.83c-4.28-.16-3.39-3.09-5.21-5.42-.88.18-.75.37-1.24.83a6.79,6.79,0,0,0,1,3.13V628a7.5,7.5,0,0,1-3.75-.64,3.38,3.38,0,0,1-2.29-.83c.38-1,.9-.72.83-1.66.47.09.24.18.63,0l.63-.22-.42-2.29c.18-1,.67-1.89.83-2.91l-1.45.2a12,12,0,0,0-1,1.67c-.23,1,.33,2.36,0,3.13l-.21.2v-.2a4.26,4.26,0,0,1-1.67-4c-.47,0-.58,0-.83.2a4.36,4.36,0,0,0-1,.63c.2,1.67.95,3.75,2.3,4.38v.42c-2.78-.46-7.79-3.83-9.38-3.76.2-3.4,2.67-4.8,3.55-7.29.16-.22.07-.06.19-.41-.06-.08-.13-.15-.19-.22-2.59.29-3.94,4.81-5.43,6.47-.22.16,0,.07-.41.19a17.84,17.84,0,0,0-1-2.28v-1.46c.14-.23,1.54-1,1.87-1.66.55-1,.57-2.06,1.25-2.91.51-.64,1.1-.35,1.46-1.26.16-.22.07-.05.21-.41-.17-.22-.08-.05-.21-.43-2.39.71-3.53,3-5,4.59h-.21c-1.08-5-.35-11.1-.21-16.05,6.86.11,12.35,3.36,19,1.89h2.71a11.36,11.36,0,0,0,4.17-1.89c1.28,1.21.79,2.53,1.66,4-.07.21-.13.42-.21.64-.54.43-1.67.32-2.28.62a37.93,37.93,0,0,0-3.13,2.29v.42c.17.21.07,0,.2.42C588.59,607.37,590.07,605.87,591.92,605ZM585,427.1c.45,2.33.18,4.45.63,6.46v3.13c1.2,4.23.88,9.82,1.88,14.16v2.3c1.84,7.11,2.36,16.59,4.16,24.16,1.42,6,1.65,13.16,2.71,18.12.53,2.48-.1,6.34.83,7.71,0,1.17.29,3.4-.21,4.18-1,.68-2.5.07-4,.41-3.83.88-8.63.48-12.7,1.46-1.89.45-7.83.95-10.21.41a17.72,17.72,0,0,0-6-.21,16,16,0,0,1-5,.21l-1.46.21c-.34-.07-.64-.5-1.25-.42a33.56,33.56,0,0,1-10-.83c-1.47-.34-2.91.25-4,0-3-.74-7.37-1.27-9.78-1.88-.89-.21-2.19.26-2.72.22-.26,0-1.32-.55-1.66-.63H523a30.14,30.14,0,0,1-4.58-1.46c-.36-.13-.21,0-.42-.2,1-.29,1.27-.9,2.09-1.26v-1c-1.86.17-6,1.16-7.5-.21-.36-.87.82-1.69,1.25-2.49-2.54-.78-3.27.68-5.63-1.47H508c.16-.16.88-.15,1.25-.62,2.76-3.49,4.64-7.68,8.13-10.42v-.62a44.1,44.1,0,0,0-5.84,5.41h-.41a26.77,26.77,0,0,1,4.79-5.62c1-.67,2-1,2.71-1.87h.2v-.21c-.35-.14-.19,0-.41-.21a6.2,6.2,0,0,0-2.92,1.45c-.21.23,0,.65-.21.84-3.15,2.32-5.6,5-8.75,7.29-.42-1-1.3-4.79-.83-5.63a39.67,39.67,0,0,1,4.17-3.95v-.21c-2.15.5-3,2.06-4.8,2.92v.21c-2.79-2.61-.23-4.46,1.88-5.62v-.22a4.28,4.28,0,0,0-3.34,1.67c-.76-.38-1.32-2.27-.41-2.92-.33-.64-.71-.46-1.25-.83-1-1.39-.38-3-1-4l-.21-.21.83-.62c.3-.16.27-.07.63.2.77-.42.63-1.35,1.25-1.88a29.63,29.63,0,0,1,3.74-2.49v-.21c-1.59.24-2,1.22-3.32,1.67v.62h-1.46a8.29,8.29,0,0,0-1-4.16c.52-1.55,3.79-4.2,5.2-5v-.42c-2.16,1-3.22,2.8-5.42,3.74a20,20,0,0,1-1.45-5.82c.23-1.52,1.65-2.43,2.71-3.13v-.22h-.84c0-2.12-1.18-4.71-.62-6.24a2.66,2.66,0,0,1,1.88-2.91v-.22c1.5.85.38,2.82,1.45,4.17l.21.21c.43-2.06,0-3,0-5.84a31.3,31.3,0,0,0,2.91-3.12c.86.52.35,1.85.84,2.71v.41l.21-.2c1.65-.95-.82-4.57,0-6a3.1,3.1,0,0,1,1.67-1.26c-.09-.42-.06-.39-.21-.61-.61-.28-1.48.45-2.09.82-.92-2.56-.77-6.18-1.87-7.7.35-1,2.77-2.89,4.71-4.24a14.67,14.67,0,0,1-2,.49,14.73,14.73,0,0,0-2.71,1.87c-.49-.23-.38-.19-.63-.62s0-1.89-.41-2.3c.26-1.79,4.46-3.73,5.83-4.79h.21v-.62c-1.38.67-5.38,3.07-6.67,3.12a6.17,6.17,0,0,0-.63-2.91v-2.08c.35-.76,5.65-3.76,6.67-4.59.17-.21.08-.05.21-.42h-.21c-.21-.17-.05-.07-.41-.2-1.17,1.13-2.95,1.4-4.38,2.29-.73.45-1.5,1.26-2.29,1.66-.41.07-.83.15-1.25.21s0,.56-.21.83a14.53,14.53,0,0,1-3.12,2.09v.21h-.22c-.38-1.66-1.89-5.16-.62-6.88.44-1.11,1.8-1.61,2.71-2.29.64-.48,1.07-1.35,1.67-1.87a40.91,40.91,0,0,1,6.25-4c.78-.47.53-1.11,1.87-1.25.14-.36,0-.2.21-.42v-.42c-2.89.72-5.27,2.9-7.5,4.38-.49.33-1,.28-1.46.62s-.47,1-.83,1.25c-1.05.86-2.4,1.14-3.34,2.09h-.2v-4.59a17.89,17.89,0,0,1,2.29-1.66c1.77-1.35,3.18-3.77,5.62-4.38-.08-.42,0-.4-.2-.63s-1.25.31-1.67.63c-1.64,1.25-4.18,2.26-5.62,3.75h-.42c.11-.46-.16-1.5.2-2.08.17-2,4.26-4.22,5.63-5.42h.21v-.41c-2.48.24-3,2.25-4.58,3.12s-3.11,1.27-4.38,2.49h-.42c-.13-.35,0-.19-.21-.41-.05-3.84,2.28-4.25,4.38-5.83l1.67-1.67c.61-.3,1-.08,1.45-.42.22-.27.42-.54.63-.83,1.48-.75,3.59-.39,5.21-1,3.08-1.21,7.37-1.88,10.63-2.91,1.65-.53,4.41,0,5.82-.84.14.12.19.48.43.84-.78.46-1,1.17-1.67,1.66-4.1,3.19-10.44,5.91-8.75,12.91.43,1.8.42,3.07,1.25,4.38,1,1.65,2.64,2.15,4.16,3.34,3.49-.42,4.49-3.27,6.05-5.63,2.24-3.41,4.56-7,7.08-10.21,1-1.23,2.6-2.07,3.54-3.33.43.09.4,0,.63.21,1.11.45,1.25,2.94,1.25,5.21a34.94,34.94,0,0,1-1.67,10.62c-1.37,4.5-2.44,9.4-4,13.75-.45,1.31-.15,2.27-.62,3.55-1.66,4.51-4.48,9.3-4.79,14.79-.23,3.95-1.15,9-.22,12.91.29,1.19-.17,2.17.42,2.92l.63.62c2.44-.1,3.36-2.91,6.46-1.87,1.77.59,1.92,1.75,4.79,2.08v5a54.53,54.53,0,0,1,1,6.45l.21.21c1.91.06,3.18-1.7,5.62-1,2.81.75,6.39,4,9.8,2.49,1.31-.56,2.3-1.83,3.54-2.49-.13-2-1.5-2.8-2.09-4.37-1-2.61-.9-5.29-1.45-7.72v-2.49a12.7,12.7,0,0,1-.42-3.55A41.51,41.51,0,0,0,555,444v-3.34c.79-3.35.52-7.3,1.25-10.42a32.72,32.72,0,0,0,.61-8.12,16.89,16.89,0,0,1,.43-1.87c.36-1.56.66-7.49.2-9.38-.76-3.2-.58-7.21-1.66-10.21s-4.31-6.55-4.37-10.21C556,390,562,392.72,564.62,395c1.07.95,2,2.71,3.54,3.13,4.08,1.15,6.92-8.3,4.17-11.25v-.83c1-.25,2.43-.59,3.54-.83h3.33c1.12-.27,2.12-.81,3.33-1,.83,1.92-.66,6.15,0,9.37.41,1.95-.26,6.08,0,7.7s0,3.6.43,5.21a16.09,16.09,0,0,1,.62,2.71,16,16,0,0,0,0,3.75C584.85,417.88,584.44,424,585,427.1Zm-74.37,65.21.21-.2c.17.2.08.05.21.41C511.08,492.52,510.26,492.47,510.66,492.31ZM525,396.06c2.19-.12,3.34-1.46,4.38-2.71.06-.21.14-.42.2-.63.39-.21,1.16.23,1.89-.2,1-.62.79-1.17,1.87-.63.14-.52.06-.11,0-.63a2.18,2.18,0,0,0,.21.22c.36.13.2,0,.41.2a8.18,8.18,0,0,0-2.71,2.92c-1.43,2-3.53,3.84-5,5.83-1,1.45-1.52,3.09-2.5,4.59-.63.94-1.37,2.15-2.09,3.12-.57.78-1.65,1.16-2.09,2.09-3.61-.36-5.11-7.08-3.54-10.22,1.74-3.44,4.87-4.72,7.93-6.87.2-.35.42-.69.62-1,.69-.54,1.58-.69,2.29-1.25s1.15-1.67,1.88-2.08c1.34-.77,2.91-.39,4.37-1.25a2.58,2.58,0,0,1,.83.42c-.32,1.39-1.45,1.19-2.49,1.87-2.59,1.66-5.75,2-6.88,5.2h-.2A3.63,3.63,0,0,0,525,396.06Zm45-9.59c1.6,3.85,1.47,6.34-.64,9.38l-.61.21c-2.21-3.19-8.17-6.18-12.3-7.51-1.55-.49-5,.22-6.24-.83h-.42c1.07-1.76,5-.37,6.66,0,1,.24,1.93-.44,2.72-.41,1,.05,2,1.58,3.12,1,.87-.08.88-.1,1.25-.63.17-.21.07-.05.2-.41-.58-.4-1.64-.43-2.28-.84-.38-.23-.77-.88-1.26-1-1,.08-2.08.14-3.12.21-.94-.21-2.23-.64-3.13-.83-1.31-.29-3.15.72-4.37,0-.2-.26,0-.26-.21-.62a1.89,1.89,0,0,1,.42-1.47h1c1,1.77,3.26.6,5.21,1C561,384.89,565.72,384.62,570,386.47Zm-13.75-4.79v-.2c2.27-1.07,4.73-1.09,7.49-1.88,3.13-.89,7.33-1.59,10.63-2.5l4-.21a17.42,17.42,0,0,1,5-.84c-.21,2.16-.41,4.31-.63,6.47a8.54,8.54,0,0,0-2.71.62h-5.62c-1,.26-3.3,1.27-4.58,1.05C565.36,383.38,561,382,556.29,381.68Zm-5.84,13.75a35.8,35.8,0,0,1,4,9c.59,2.24.35,4.6.83,6.67v2.7a17.19,17.19,0,0,1-.41,7.72v3.33l-.63,7.7c-.39,1.6-.17,3.61-.62,5.43a23.25,23.25,0,0,0-.84,5.2A13.18,13.18,0,0,1,553,445a38.14,38.14,0,0,0,0,10.63c.86,4.52.3,9.68,2.92,12.3a1.51,1.51,0,0,1-1.25,1,6.75,6.75,0,0,1-3.34.2c-.62-.24-1.49-1.15-2.08-1.46a26,26,0,0,0-2.91-1c-1.66-.53-3.17.19-5,.21a108.15,108.15,0,0,1-.41-12.29c0-5.5-.11-9.79,1.25-15.21.47-1.86-.2-4.32.21-5.62.25-.8.82-2.56,1-3.33v-2.92c.85-3.51.72-7.49,1.68-11,1.59-5.9,4.85-17.75.83-22.92,0-1.83.66-1.37,1.66-2.08C550,391.59,549.53,393.85,550.45,395.43Zm-3.54-7.08c-.1.94-.27.89-.62,1.46a15.08,15.08,0,0,0-1.67.42c-.34-.46-.9-.64-1.26-1.05l-1.24-3.33c.26-1.9,2.81-1.47,4.17-2.29a4.63,4.63,0,0,0,.83.63,6,6,0,0,1-.41,1.66C546.6,386.5,547.51,387.43,546.91,388.35Zm-4.38,3.54a40.06,40.06,0,0,1,2.51,6.05c1.16,4,0,8.53-.84,11.66s-1,6-1.67,8.76c-1.48,6.17-1.15,11.91-2.7,18.11v2.92c-.63,2.53-.79,6.77-1.26,9s.77,5.25-.2,6.87v.42c-2.22-.06-2.37-1.11-3.75-1.66-2.27-.91-4.77.59-6.25.83,0-3.34-.63-7.3.2-11v-2.91c1.33-5.2,3.27-9.81,4.8-14.58,1.35-4.24,2.31-8.69,3.54-12.72,1.34-4.42,1.69-9,2.71-13.13.44-1.78-.26-4.23.42-5.42.08-1.08,1.42-2.29,2.08-2.91C542.33,391.93,542.17,392,542.53,391.89Zm-3.33.21c-1.87-.11-1.8-1.87-2.29-2.71.18-1.31.86-1,1.25-2.08a1.72,1.72,0,0,0,.21-1h.83a2,2,0,0,1,.21.2A6.16,6.16,0,0,1,539.2,392.1Zm77.5-32.92a2.32,2.32,0,0,0-1.25.41H615c.34-.49.73-.69,1-1.25-.21-.2-.42-.4-.63-.62-1.91.18-6.4,3.64-7.29,5h-.62a22.23,22.23,0,0,1,1.87-2.7,2.84,2.84,0,0,0-.21-.84l-.62-.2a23.75,23.75,0,0,1-2.51,2.7,2.47,2.47,0,0,1-.41-.62,21,21,0,0,0-4.59,2.08c-.2.23.07.66-.2.83-1.22.77-3,.72-3.75,2.09a2.91,2.91,0,0,0-1-.21v-.21c1.25-.53,1.78-1.68,2.92-2.28v-.84l-1.47-.21c-1.56,1.59-4.41,2.48-5.41,4.58h-.42a4.62,4.62,0,0,1,1.47-2.08v-.62c-1.26.44-2.26.65-2.93,1.66a2.05,2.05,0,0,1-1.46-1.46c-2.29.48-2.8,2.39-5.41,2.92v-.21h-.21a4.22,4.22,0,0,1,1.67-1.87c-.16-.76,0-.58-.62-.84-1.66-.72-4.3,3.41-5.63,4-.37.28-.35,0-.62.21h-.42a15.39,15.39,0,0,0,1.24-1.67l-.2-.21c-2.93.1-6.49,3-8.12,4.58H569a6.53,6.53,0,0,1,2.92-2.7v-.84c-1.62-.29-1.8.44-2.92.84h-1.25c-2,.76-2.83,3.13-4.38,4.37l-.22.21v-.21c-.35-.13-.19,0-.4-.2a3.43,3.43,0,0,0,1-.63c.18-.15.26-.61.63-1,0-.48,0-.58-.21-.84a4,4,0,0,0-.83-.42,26,26,0,0,1-2.5,1.68h-.21a2.56,2.56,0,0,0,.21-.84c-1.32.12-1.26.7-2.29,1-.21.26-.57-.14-.84-.42-2.94.44-7.11,4.51-7.91,7.09a9,9,0,0,1-2.09.41l-.21.22c.94-2.86,4.69-4.13,6.25-6.47.23-.33.19-.75.42-1-.15-.77,0-.58-.62-.84-.21-.16-.05-.08-.41-.2a13.79,13.79,0,0,1-2.51,2.7l-1.46-.21c-.66.2-.89,1-1.67,1.26-.4.18-.43.11-.82-.22-2.27.36-2.35,2.32-4,3.13v.84c-.42.08-.39.05-.62.2h-.42a14.06,14.06,0,0,1,2.3-2.71,3.39,3.39,0,0,0-.22-1c-1.56.18-4.87,3.6-5.62,4.79h-1.25a5.84,5.84,0,0,1,2.08-2.49,2.79,2.79,0,0,0-.2-.84,3.35,3.35,0,0,0-2.3,1.46,4.1,4.1,0,0,1-.63-.84c-2.05,0-3.88,2.21-4.36,3.75a3.91,3.91,0,0,0-1.67.42H529a2.25,2.25,0,0,1,.83-1.46c-.07-.73,0-.69-.42-1s-.57.49-1.26.42c-3.19-.33-4.43,4.38-6.24,6.25a5.45,5.45,0,0,1-1.46.62H520v-1c1.18-1.12,1.94-2.62,3.54-3.33v-.84a3,3,0,0,0-2.92.84,7.06,7.06,0,0,1-.42-1.25c-.61.09-4.57,4.53-5,5.21h-.62a6.49,6.49,0,0,1,2.29-2.5,3,3,0,0,0-.21-1,5.06,5.06,0,0,0-3.13,1.66h-.41c.21-.34.41-.69.63-1a2.87,2.87,0,0,0-.84-.42c-.13-.16,0-.05-.21,0-1.46.27-3.44,3.78-4.16,5a9.53,9.53,0,0,1-3.13.62v-.62c.68-.66,1.12-1.72,1.87-2.3s1.75-.93,2.29-1.87l.22-.22-.22-.2a10.45,10.45,0,0,0-9.36,7.08,2.42,2.42,0,0,0-1.67.42h-.42a12.92,12.92,0,0,1,3.75-4.17,3.15,3.15,0,0,0-.21-1c-1,.14-1.74.86-2.5.42-2.58.16-3.84,3.63-5.42,5V390h-.21a24.65,24.65,0,0,1,2.92-4.59v-.2c-.36-.14-.2-.05-.42-.21-2.33.13-6,6.24-7.08,8.12a6.48,6.48,0,0,1-1.46,0,8,8,0,0,1,1.25-1.46,6,6,0,0,1-.42-.83c1.38-1.06,1.95-3.07,3.34-4.16-.2-.79-.38-.58-.63-1.26-.8.29-.53.58-1,1-.69.63-1.37.38-2.3.84s-3.89,3.59-4.17,4.58c-.48.05-.58,0-.83.21h-1.45s.49-1.53,1.24-1.87a3.48,3.48,0,0,0-.2-1.05c-1.72.32-3.44,2.18-4.38,3.34h-.41a6.11,6.11,0,0,1,2.07-2.71,2.13,2.13,0,0,0-.41-1.26c-2,.69-6.3,5.56-7.08,7.51l-.21-.21c-.38-.15,2.32-4.54,3.75-5.42a3.09,3.09,0,0,0-.21-1l-.63-.21c-2.19,2.27-5.18,4.38-6,7.92-.48,0-.59,0-.84.21h-1a12.64,12.64,0,0,1,4-5.21v-.84c-.37-.13-.21,0-.42-.2-2.79.42-3.92,2.34-5,4.34-.18-.4-.18-.28-.41-.6,1.35-1.07,1.66-3.14,3.13-4.15-.09-.43-.06-.41-.22-.63v-.42c-1.69.16-2.66,1.73-3.33,2.92-.67-.18-.31.11-.62-.42-4.34.29-5,6.34-7.91,7.5v.21C455,399.29,459,393,460,392.3v-.82c-2,.63-6.78,6.73-7.29,8.75a3.29,3.29,0,0,0-1.66.2h-.21c.28-2.07,2.21-3,2.91-5,.17-.21.07-.05.21-.42-.17-.21-.08-.05-.21-.41-2,.44-3.44,2.86-5,4.37-.22.17-.19.13-.62.22a8.46,8.46,0,0,1,2.29-4,3.16,3.16,0,0,0-.21-1.05c-1.87.33-5.16,5.54-5.21,6.67h-.2a2.08,2.08,0,0,1-.21-.21c.46-2.14,1.53-3.29,1.66-5.63-2,.13-1.29,1.35-2.29,2.3.13.65,0,.5.42.83-.23.16-.19.13-.63.21.23.15.2.13.63.2v.22a1.47,1.47,0,0,0-1.05,1,5,5,0,0,0-1.66-.62c.49-3.32,1.63-6.66,2.08-10.21a91.78,91.78,0,0,0,9.8-2.29c4.7-1.33,9.79-1.32,14.16-2.71l4.17-.22c2.07-.48,4.68-.67,6.46-1s4.34-1.31,6.25-1.87l4.58-.63c4.7-1.84,10.87-2.37,15.63-4,1.4-.47,3.19-.53,4.37-.84h1.88a19.89,19.89,0,0,1,2.91-1.24c1.77-.38,4,0,6-.63,3-.91,6.67-1.72,9.79-2.5l2.91-.21c1-.26,2.11-.78,3.12-1.05h1.88l.63-.62h2.91c2.56-.69,5.59-1.41,8.13-2.08,1.38-.36,2.29-.05,3.76-.42,3.46-.87,7.34-2.1,10.82-3.12,2.65-.78,5.14-.47,7.93-1.25s7-1.94,9.37-2.72l2.71-.2c1.77-.45,3.72-1,5.41-1.45.86-.22,1.9.13,2.51-.22a2.14,2.14,0,0,1,1,.42c-.21.17,0,.08-.42.2v.22c1.32,0,1.07-.06,1.25.83a4.06,4.06,0,0,1,2.09-.41c.11-.72.42-1.68,0-2.3v-.41l.42.41c1-1.38,4-2,5.83-2.5h1.46a97.65,97.65,0,0,1,10.21-2.71l3.33-.2c3.29-1,7.21-2.17,10.62-3.12,2.1-.61,3.82-.89,5.64-1.47l1.66-.21a29.16,29.16,0,0,1,4.37-1.87l3.75-.42c.07-.13.13-.28.21-.41,1.22-.47,2.11-.06,3.33-.42,2.4-.72,5.54-1.2,7.92-1.88.94-.26,1.47,0,2.09-.41,2.36-.12,3.15.49,3.54,2.29a2,2,0,0,0,.21.2c-1,.57-1.55,1.84-2.51,2.3l-1.87.2a9.81,9.81,0,0,0-3.54,2.71c-.79,1.32.05,3.24-.63,4.38-.32.27-.92.37-1.25.63h-.2c0-.5.11-1.18-.22-1.67-.28-.33-.13-.24-.62-.42-.25-.26-2.37,1.19-2.7,1.67h-.43c.14-.65,0-.5.43-.84-.08-.86-.11-.88-.63-1.24-.22-.17,0-.08-.43-.21-1.86,1.95-5.33,3.22-6.45,5.83-.48-.05-.58,0-.84-.21h-.2c.22-.15.19-.13.62-.21l-.2-.2c.3-.52.09-.34.82-.42a5.14,5.14,0,0,0-.4-.41c.83-.55,1.37-.71,1.66-1.88.17-.22.08-.06.21-.42l-.63-.63c-1.79.25-6.89,5.34-6.87,6.67a4.1,4.1,0,0,0-.84.41h-.2c.21-.64.33-.23.62-.61.09-.11-.66-.29-.42-.84.17-.39.46-.12.64-.83H634c.29-1.85,2.18-1.91,2.71-3.54.17-.22.09,0,.21-.42l-.62-.62c-3,.48-6.21,5.48-8.13,7.49-.21.17,0,.08-.42.21l-.41-.41h-.21l.21-.43c0-.56,3.08-3.75,4.16-4.37v-.83a6.38,6.38,0,0,0-4.79,2.5c-.45-.26-.2-.39-.41-1a3.59,3.59,0,0,0-2.29,1.46,6.43,6.43,0,0,1-.42-1.26c-3.12.14-4.11,2.64-6.25,3.76C617.14,360.13,616.87,359.47,616.7,359.18Zm29.59-5.83-.21.42h-.42v-.21c.36-.14.2,0,.42-.21Zm-.84.62c-.13.36,0,.21-.2.42-.22.48-.36.45-.63.83-.52-.3-.24.06-.41-.62.73-.13.7-.14,1-.63Zm8.33,7.3c-8.78,4.2-19.47,5.1-30.41,5.41v-.62a14.58,14.58,0,0,0,5.83-1.67c1.36-.68,2.7-.32,4.18-.83,2.61-.9,5.68-1.65,8.53-2.71l3.13-.21c2.91-.72,5.64-.82,7.29-2.08,1.17.15.92.56,1.45,1.25C653.82,360.74,653.75,360.65,653.78,361.27Zm29.18-4.8c-.85,2.88-3.91,3.45-6.67,4.38H675c-1.13.44-2.43,1.7-3.34,2.09l-6.25.2c-1.76.44-3.36,1.28-5.62,1.25-1.09-1.06-2.61-1.47-3.34-2.92-.06-.62-.13-1.25-.2-1.88-.26-.92-.79-2-1-2.91a6.39,6.39,0,0,1,0-1.67c-.4-1.26-1.35-3.61-.42-5,.34-1,2.59-2,3.33-1.86h.63c.43,2,1.24,6.1,2.29,7.49l.63.63,1.25-.22.2-.2c-.09-2.15-2.9-8.16-1.25-10,.47-1,2-1.51,3.54-1.46.12,3.06,1.68,5.54,2.71,7.92a3.16,3.16,0,0,0,1.87-.42,26.81,26.81,0,0,0-2.29-6.87,3,3,0,0,1,.63-1.88,4.43,4.43,0,0,0,1.25-.62c2.94,0,2.61,4.82,4,6.66.21.21.41.42.63.62a1.42,1.42,0,0,0,.83-.2c.2-.08.42-.14.62-.21a20,20,0,0,0-1.87-6.25,6,6,0,0,1,.2-1.88c1-.42,2.81-1,4-.2,1.44.37,1.38,2,1.89,3.33a51.43,51.43,0,0,1,2.07,6.25c.08.32-.26,1,0,1.67l.84.83A22.41,22.41,0,0,1,683,356.47ZM817.33,332.1c-.65.62-1.15,1.78-1.87,2.29l-1.88.63-1.45,1.66c-1.51.87-3.6.52-5.43,1-2.47.71-6,1.27-8.54,1.88h-2.29c-.17,0-.82.6-1,.62s-.89-.34-1.46-.21a7.23,7.23,0,0,1-2.29.63,8.77,8.77,0,0,0-3.75,0c-4.2,1.5-9.19,2.05-13.75,3.13-2,.47-3.58,0-5.42.62-3.19,1.07-7.12,1.76-10.41,2.5l-4-.21c-2.57.77-5.57,1.4-8.54,2.08H743c-1.08.25-2.6.6-3.54.84h-2.5c-2.22.53-5.15.89-7.5,1.25l-1.45-.21c-1.19.22-3.79.84-5,.63-.63-.11-1.3-.82-1.88-1-2.59-1-5.19-1.46-7.29-2.92-1-.67-2-1.78-2.91-2.5v-.63l-4-.83c.37-1.29,1.5-2,2.3-2.92l.2-.21-.2-.21c-1.87.05-3.82,1.75-4.59,2.92-.36-.13-.2,0-.41-.21h-1.88c.72-1.66,1.79-2.16,2.91-3.33h.22a3.21,3.21,0,0,0-.42-.83c-2.21.14-3.93,2.27-4.38,4.16-1.16,0-3.4.29-4.16-.2-.46-.76,2.15-2.69,2.91-3.13-1.48-2.45-5.57,3.45-7.08,4.16-.07-.2-.13-.41-.21-.62,1.18-1.17,1.18-2.24,2.93-2.71a3.56,3.56,0,0,0-.22-1c-2.62.13-4.42,3.33-5.63,5a2.78,2.78,0,0,0-1.45.21h-.21a3.09,3.09,0,0,1,1.66-2.29v-.42l-.2-.21c-2.4.12-4,2.59-5.21,4-.6-.93-.13-2.52-.62-3.55s-2.17-1.7-2.71-2.7-.45-1.69-1-2.51a1.81,1.81,0,0,1,.2-1,52.86,52.86,0,0,1,5.42-1.87l2.71-.22c2.06-.62,4.46-1.61,6.46-2.28,2.45-.84,4.67-.66,6.67-1.88a15.87,15.87,0,0,0,4.36-4.79c.3-.51.11-1.13.42-1.67.76-1.32,5.18-4.87,6.67-5.62.55-.08,1.11-.14,1.67-.21.42-.22.55-1,1-1.26,1.35-.65,2.34-.54,4-1,1.94-.59,4.1-1.71,6-2.3,2.22-.66,4.73-.55,6.67-1.24h3.75c5.12-1.57,11.91-1.81,17.08-3.13l4.38-.21c2.19-.51,4.69-.57,6.66-1s4.28-.41,6-.83h3.55c1.71-.44,4-.15,6-.63,3.77-.9,10-2,13.33-1.67h3.54c2.16.72,4.42,3.49,6.47,4-1.08.82-3,.25-4.59.63-3,.73-6.28.92-9.59,1.66l-5.2.21c-2.64.77-7.88,1.19-10.63,1.67-1.19.2-1.63-.73-2.5-.62-3,.34-6,.82-8.75,1.24s-5.75-.92-8.75-.21l-3.54.84-3.34.21c-1.09.36-2.33,1.25-3.33,1.67a39.94,39.94,0,0,1-6.46,1.66c-1.31-.14-2.64-.27-4-.42-4.29.85-7.94,1.09-11.46,2.71v.83c-2.25.37-6.45,2.81-7.49,4.38l-.84,2.51c-.53.57-1.58.61-2.29,1-.91.53-1.65,1.68-2.5,2.28a25,25,0,0,1-2.91,1.26c.23.64.43.61.82,1,3.19-.26,4-2.78,6.25-4,.13-.35,0-.19.21-.41l.63,2.08c-.26,1.21-4.21,3.65-5.42,4.17,0,.93,0,.59.63,1.25,2.58-.26,3.3-2.45,5.42-3.33.48.48,1,1,1.46,1.45l-.22.22h.22c-.55,1.58-2.82,2.53-4.38,3.13.1.93.19.75.63,1.24,1.9-.16,3.42-1.95,4.36-3.12,1.61.1,2.44,1,3.55,1.66a9.61,9.61,0,0,1-3.33,2.71c-.07.9.15,1.05,1.25,1.25,1.15-1.09,2.61-1.82,3.75-2.92a2.21,2.21,0,0,1,1.87.63,7.15,7.15,0,0,1-2.49,2.49,2.18,2.18,0,0,0,.41,1.26c1.73-.16,3.51-2.22,4.37-3.33a5.45,5.45,0,0,1,2.71.42c.34.31.18.22.21.41-.85,1.7-3.09,2.46-4.17,3.95l.42.42a1,1,0,0,0,.83.21c2.25-.45,2.76-3.22,4.8-4,.88-.65,2.4-.26,3.54,0-.66.88-1.71,2.83-2.92,3.75.08.86-.05.78.62,1,.22.16.06.07.42.2,1.24-1.35,3.69-4.38,5.21-5.21.8-.43,1.94-.08,2.5-.2.88-.2,1.71-.68,2.29-.42h.42l-.21.21c-.49,1.35-2,1.8-2.7,2.92-.24.36-.19.93-.42,1.25v.62c.36.13.2,0,.42.21,1.82-.16,3.74-4.14,5.2-5.21,1-.73,2.94-.48,4-1.25h1.87v.21c-1.39,1-2.16,2.72-3.53,3.75a2.14,2.14,0,0,0,.41,1c2.24-.13,4.22-4.17,5.83-5.42,1-.75,3.76-.38,4.38-.82H758a8,8,0,0,1-2.08,2.29c0,.48,0,.58.2.82a2.24,2.24,0,0,0,1,.42c1.12-1.11,2.86-2.27,3.54-3.75a45.07,45.07,0,0,0,4.59-.83h.42a3.12,3.12,0,0,1-1.67,2.29v1.05l1.45.2c1-1.22,2.8-3.22,4.38-3.75,1.32-.44,3.44.06,4.58-.62h2.71l-.2.2A4,4,0,0,1,775,336.9a3.68,3.68,0,0,0,.41.82c.63,0,.59.16.84,0,2-.38,2.63-2.48,4.17-3.33s3.43.08,4.16-.62a2.87,2.87,0,0,1,.84.2,4.11,4.11,0,0,1-2.5,2.08c.17.89.37.77.83,1.26,2-.44,3.24-2.38,4.58-3.54s3.36-.93,5.21-1.25c.22.16,0,.07.42.2v.22c-1,.68-1.36,1.94-2.29,2.7a2.14,2.14,0,0,0,.42,1c2.25-.15,2.6-2.46,4-3.54.46-.36,1-.46,1.46-.83a5.19,5.19,0,0,1,1.67.21,2.28,2.28,0,0,1-.83,1.25c.14.77.3.74.62,1.25,1.08-.14,3-2.35,3.55-3.13a1.82,1.82,0,0,0,1-.21,8.64,8.64,0,0,1,2.5.21L804,334c.08.43,0,.4.21.62s.14.43.21.63a2.53,2.53,0,0,0,2.49-1.45c.68.32.69.76,1.46,1,.22.17.06.07.42.21a21.89,21.89,0,0,1,4.79-4.37V330H813v-.2c.84-.42,2.92-1.71,3.75-1.25.48.21.45.35.83.62C817.47,330.15,817.41,331.13,817.33,332.1Zm1.26-13.75.62.2A2.88,2.88,0,0,1,819,320v.41C818.13,319.93,818.4,318.81,818.59,318.35Zm.62,3.33c-.36-.13-.21,0-.43-.2C819.15,321.61,819,321.51,819.21,321.68Zm-.43.21h.64C819.05,322.08,819.15,322.08,818.78,321.89Z" transform="translate(-101.32 -140.77)"/><path d="M537.74,262.73c.18-2.66-2.66-6.68-3.33-9.8l-1.25-.21c-.87,1.95,3,7.22,3.54,10Z" transform="translate(-101.32 -140.77)"/><path d="M461.7,277.93h.41c.54-1.34,1.32-4.16,2.3-5.42.4-.5.89-.54,1.25-1.25a3.44,3.44,0,0,0-1.05-.21c-.57,1.13-3.66,5.2-2.91,6.46Z" transform="translate(-101.32 -140.77)"/><path d="M553.37,289c-.22,1.24-.91,1.44-1.25,2.5.16.21.08,0,.21.42l1,.21a21,21,0,0,0,3.12-4.8c.17-.21.08,0,.22-.4l-.42-.43c-1.19.46-1.21,1.67-2.51,2.08V289h-.2a8.69,8.69,0,0,1,2.71-4.78,2.23,2.23,0,0,0-.42-1.05c-2.58.46-2.55,3.21-4.17,4.58a4.12,4.12,0,0,0,.21,1.25Z" transform="translate(-101.32 -140.77)"/><path d="M542.74,303.14c.57-.68,1.49-.83,2.08-1.46.44-.46.33-1.06.84-1.46a17.72,17.72,0,0,0-.42-4.58,6.94,6.94,0,0,0-4-1,1.71,1.71,0,0,1-1,.2c-1.46,1.43-4.51,4-2.5,6.47C538.63,302.66,540.46,303.17,542.74,303.14Zm-1.25-6.88a3.1,3.1,0,0,1,1.67.42h.42c.25,1,.64,1.81.42,2.29-.26,1.36-1.1,1.54-1.67,2.5a4.26,4.26,0,0,1-2.92-.83C538.91,298.19,540.19,297.46,541.49,296.26Z" transform="translate(-101.32 -140.77)"/><path d="M449.61,309.39c1.15-2.34,3.15-4,4.8-5.83.17-.22.08-.06.21-.42l-.21-.21c-1.24.2-1.65.9-2.51,1.46V305h-.62c-1.44,2.7-4.56,4.94-5,8.53C449,313.53,448.74,311.17,449.61,309.39Z" transform="translate(-101.32 -140.77)"/><path d="M516.29,311.27c2.39,3.57,5.19,6.55,5.62,11.66a2.07,2.07,0,0,0,1.25-.42c-.69-7.06-6.76-13.63-10.21-19.37a2.42,2.42,0,0,0-1.46.42c.29,1.87,2.92,4.46,4.17,6C515.87,310.16,516.07,310.71,516.29,311.27Z" transform="translate(-101.32 -140.77)"/><path d="M453.58,307.3c-1.64,2-2.34,4.69-4,6.67a2.72,2.72,0,0,0,.22.84c2.06-.19,4.29-6.41,5.42-8.13.55-.86,1.39-2,1-2.5C455.79,305.47,454.38,306.3,453.58,307.3Z" transform="translate(-101.32 -140.77)"/><path d="M419.41,319.6a2.94,2.94,0,0,0-1.45.62,14,14,0,0,0,1,2.09c3.75.91,5.51,1.06,8.75-.83a2.1,2.1,0,0,0-1-1.26l.21-1,.2-.21c1,.08,2.05.61,2.72.21.5-.27.14.09.41-.41.17-.22.08,0,.21-.42-1.05-.41-1.82-.82-2.71-1.25.27-2.91,2.25-4.73,3.75-6.46h.21c.41-.12-.42-.21-.42-.21-1.6-.61-3.66,4.07-4.79,5-.13.36,0,.21-.21.41-.22-.47-.19-.37-.62-.62a4.08,4.08,0,0,1,2.49-3.54,3.1,3.1,0,0,0-.19-.83c-1.95.11-2.22,1.59-3.35,2.5l-.2.2c-.42-.84-1-1.94-.21-2.91a2.38,2.38,0,0,0-.42-1.05H423c-.21.77-.41,1.53-.63,2.3l-.62.41c-.49,1.1-.06,2.26-.63,3.13v1.25l-.2-.21a3.19,3.19,0,0,0-1.88.42v.42l1.88,1.46a10.08,10.08,0,0,0,.2,2.5A3.05,3.05,0,0,1,419.41,319.6Zm5.2-2.29c.51.19.34.22.84.42-.08.42-.05.39-.21.62L425,319a3,3,0,0,1-.83-.2C424.34,317.85,424.6,317.81,424.61,317.31Z" transform="translate(-101.32 -140.77)"/><path d="M525.45,317.73c.16-.22.08-.06.21-.42-1.49-1.42-3.06-6.9-4.79-7.3.06,3.72,2.32,5.53,3.55,8.14C525.15,318.07,525.1,318.12,525.45,317.73Z" transform="translate(-101.32 -140.77)"/><path d="M558.58,361.06c.29.22.59.17,1-.21,1.19-.61,1.94-2.87,2.71-4,2-2.9,5.89-8.07,8.75-10v-.63c-2,.24-2.77,2.27-4,3.34A66.87,66.87,0,0,0,561.5,355c-1.26,1.42-2.06,3.42-3.55,4.58C558,360.56,558,360.67,558.58,361.06Z" transform="translate(-101.32 -140.77)"/><path d="M551.91,360.22a2.28,2.28,0,0,0,.42,1c2.19-.14,1.85-1.91,2.71-3.33,1.14-1.93,2.42-4.69,4.17-6.05v-.62H558a44.53,44.53,0,0,0-4.78,6C552.58,358.2,552.51,359.36,551.91,360.22Z" transform="translate(-101.32 -140.77)"/><path d="M535.24,362.94v.42c.48-.06.59-.05.84-.22l.62-.2c-.19-2.29-.83-5-.41-7.09a2.53,2.53,0,0,0-.84-.41c-.21.16-.05.07-.42.2a8.15,8.15,0,0,0,0,5.21C535.22,361.6,534.92,362.43,535.24,362.94Z" transform="translate(-101.32 -140.77)"/><path d="M535,365c-.16-1.52-1.09-1.46-1.66-2.49a33.74,33.74,0,0,1-2.29-5.21h-1.47c-.13.36,0,.2-.2.41.2,3.11,2.61,5.7,4,7.92C534.37,365.53,534.27,365.27,535,365Z" transform="translate(-101.32 -140.77)"/><path d="M500.45,366.68l.21.63c1.95-.22,5.09-6.23,6.66-7.72-.22-.15-.19-.12-.62-.2A55.45,55.45,0,0,1,500.45,366.68Z" transform="translate(-101.32 -140.77)"/><path d="M578.37,379l-.21-.63h-.84c-.72.63-1.43.44-2.49.83A69.51,69.51,0,0,0,568,382.1l.42.62c3.89.2,6.87-1.69,10-2.91C578.4,379.18,578.53,379.23,578.37,379Z" transform="translate(-101.32 -140.77)"/></svg>